<svg width="16" height="16" viewBox="0 0 16 16" fill="none" xmlns="http://www.w3.org/2000/svg">
<g clip-path="url(#clip0)">
<path fill-rule="evenodd" clip-rule="evenodd" d="M3.90909 2.37216C4.96062 1.99661 6.08358 1.92351 7.19739 2.14627C8.32589 2.37197 9.30023 2.89924 10.1151 3.64003C10.8337 4.29328 11.3134 5.14609 11.6191 5.99999H12C13.0206 5.99999 14.0648 6.38818 14.8052 7.19472C15.6118 7.93516 16 8.97941 16 9.99999C16 11.0559 15.5216 12.0815 14.817 12.7924C14.0759 13.6077 13.026 14 12 14H5.99998C4.89194 14 3.76314 13.7066 2.8403 13.0948C1.85667 12.4864 1.11978 11.5906 0.612995 10.6494C0.082793 9.66473 -0.146884 8.52386 0.00582395 7.37855C0.155209 6.25816 0.602652 5.21864 1.26664 4.33332C1.94234 3.4324 2.84833 2.751 3.90909 2.37216ZM6.9359 3.45371C6.04971 3.27647 5.17267 3.3367 4.35753 3.62782C3.55162 3.91564 2.85762 4.43425 2.33331 5.13332C1.7973 5.848 1.44474 6.67515 1.32746 7.55477C1.2135 8.40945 1.38383 9.26858 1.78696 10.0173C2.21174 10.8061 2.80481 11.5074 3.54938 11.9656C3.55625 11.9698 3.56306 11.9741 3.56978 11.9786C4.24507 12.4288 5.11207 12.6667 5.99998 12.6667H12C12.7018 12.6667 13.3795 12.3965 13.8378 11.8873C13.8456 11.8787 13.8536 11.8702 13.8619 11.8619C14.3506 11.3732 14.6666 10.6713 14.6666 9.99999C14.6666 9.29813 14.3965 8.62043 13.8873 8.16219C13.87 8.14655 13.8534 8.13001 13.8378 8.11263C13.3795 7.60347 12.7018 7.33332 12 7.33332H11.1333C10.8357 7.33332 10.5741 7.136 10.4923 6.8498C10.2468 5.99065 9.83031 5.18308 9.21819 4.62662C8.56639 4.03407 7.8074 3.62801 6.9359 3.45371Z" fill="#09BC8A"/>
</g>
<defs>
<clipPath id="clip0">
<rect width="16" height="16" fill="white"/>
</clipPath>
</defs>
</svg>
