<svg width="16" height="16" viewBox="0 0 16 16" fill="none" xmlns="http://www.w3.org/2000/svg">
<g clip-path="url(#clip0)">
<path d="M10.3814 4.44052H5.61832C4.96876 4.44052 4.44031 4.96897 4.44031 5.61853V10.3816C4.44031 11.0311 4.96876 11.5596 5.61832 11.5596H10.3814C11.0309 11.5596 11.5594 11.0311 11.5594 10.3816V5.6185C11.5594 4.96894 11.031 4.44052 10.3814 4.44052ZM10.5457 10.3816C10.5457 10.4722 10.472 10.5459 10.3814 10.5459H5.61832C5.52776 10.5459 5.45401 10.4722 5.45401 10.3816V5.6185C5.45401 5.5279 5.52772 5.45419 5.61832 5.45419H10.3814C10.4719 5.45419 10.5457 5.5279 10.5457 5.6185V10.3816Z" fill="#09BC8A"/>
<path d="M15.4931 6.9079C15.7731 6.9079 16 6.68095 16 6.40105C16 6.12114 15.7731 5.8942 15.4931 5.8942H13.8697V4.85043H15.4931C15.7731 4.85043 16 4.62349 16 4.34358C16 4.06367 15.7731 3.83673 15.4931 3.83673H13.8525C13.738 2.95887 13.0411 2.26201 12.1632 2.14746V0.50685C12.1632 0.226942 11.9363 0 11.6564 0C11.3764 0 11.1495 0.226942 11.1495 0.50685V2.13036H10.1058V0.50685C10.1058 0.226942 9.87886 0 9.59892 0C9.31898 0 9.09207 0.226942 9.09207 0.50685V2.13036H6.9079V0.50685C6.9079 0.226942 6.68099 0 6.40105 0C6.12111 0 5.8942 0.226942 5.8942 0.50685V2.13036H4.85043V0.50685C4.85043 0.226942 4.62352 0 4.34358 0C4.06364 0 3.83673 0.226942 3.83673 0.50685V2.14746C2.95887 2.26201 2.26201 2.95887 2.14743 3.83673H0.50685C0.226911 3.83673 0 4.06367 0 4.34358C0 4.62349 0.226911 4.85043 0.50685 4.85043H2.13032V5.8942H0.50685C0.226911 5.8942 0 6.12114 0 6.40105C0 6.68095 0.226911 6.9079 0.50685 6.9079H2.13032V9.0921H0.50685C0.226911 9.0921 0 9.31905 0 9.59896C0 9.87886 0.226911 10.1058 0.50685 10.1058H2.13032V11.1496H0.50685C0.226911 11.1496 0 11.3765 0 11.6564C0 11.9363 0.226911 12.1633 0.50685 12.1633H2.14746C2.26204 13.0411 2.9589 13.738 3.83676 13.8525V15.4931C3.83676 15.7731 4.06367 16 4.34361 16C4.62355 16 4.85046 15.7731 4.85046 15.4931V13.8696H5.89423V15.4931C5.89423 15.7731 6.12114 16 6.40108 16C6.68102 16 6.90793 15.7731 6.90793 15.4931V13.8696H9.0921V15.4931C9.0921 15.7731 9.31902 16 9.59896 16C9.8789 16 10.1058 15.7731 10.1058 15.4931V13.8696H11.1496V15.4931C11.1496 15.7731 11.3765 16 11.6564 16C11.9364 16 12.1633 15.7731 12.1633 15.4931V13.8525C13.0411 13.738 13.738 13.0411 13.8526 12.1633H15.4932C15.7731 12.1633 16 11.9363 16 11.6564C16 11.3765 15.7731 11.1496 15.4932 11.1496H13.8697V10.1058H15.4932C15.7731 10.1058 16 9.87886 16 9.59896C16 9.31905 15.7731 9.0921 15.4932 9.0921H13.8697V6.9079H15.4931ZM12.856 11.9082C12.856 12.4308 12.4308 12.8559 11.9082 12.8559H4.09177C3.56918 12.8559 3.14402 12.4308 3.14402 11.9082V4.09177C3.14402 3.56918 3.56918 3.14406 4.09177 3.14406H11.9082C12.4308 3.14406 12.856 3.56921 12.856 4.09177V11.9082Z" fill="#09BC8A"/>
</g>
<defs>
<clipPath id="clip0">
<rect width="16" height="16" fill="white"/>
</clipPath>
</defs>
</svg>
