<svg width="16" height="16" viewBox="0 0 16 16" fill="none" xmlns="http://www.w3.org/2000/svg">
<path d="M9.48835 10.1679C9.48835 8.95883 8.51282 7.30242 8.4016 7.11755L7.99994 6.44989L7.59829 7.11752C7.48704 7.30242 6.51154 8.9588 6.51154 10.1678C6.51154 10.9885 7.17922 11.6563 7.99994 11.6563C8.82066 11.6563 9.48835 10.9885 9.48835 10.1679ZM7.44904 10.1679C7.44904 9.65477 7.72879 8.93139 8.00019 8.36017C8.27141 8.93067 8.55088 9.65348 8.55088 10.1679C8.55088 10.4716 8.30372 10.7188 7.99997 10.7188C7.69622 10.7188 7.44904 10.4716 7.44904 10.1679Z" fill="#09BC8A"/>
<path d="M13.5734 11.1233C14.3941 11.1233 15.0618 10.4555 15.0618 9.63483C15.0618 8.42583 14.0863 6.76943 13.9751 6.58452L13.5734 5.9169L13.1717 6.58452C13.0605 6.76943 12.085 8.4258 12.085 9.63483C12.085 10.4555 12.7526 11.1233 13.5734 11.1233ZM13.5734 7.82765C13.8447 8.39877 14.1243 9.1219 14.1243 9.63483C14.1243 9.93861 13.8771 10.1858 13.5734 10.1858C13.2696 10.1858 13.0225 9.93861 13.0225 9.63483C13.0225 9.1219 13.302 8.39877 13.5734 7.82765Z" fill="#09BC8A"/>
<path d="M3.91489 9.63483C3.91489 8.42583 2.93936 6.76943 2.82811 6.58452L2.42646 5.9169L2.0248 6.58452C1.91355 6.76943 0.938049 8.4258 0.938049 9.63483C0.938049 10.4555 1.60574 11.1233 2.42646 11.1233C3.24717 11.1233 3.91489 10.4555 3.91489 9.63483ZM1.87555 9.63483C1.87555 9.12174 2.1553 8.39837 2.42671 7.82715C2.69796 8.39765 2.97739 9.12046 2.97739 9.63483C2.97739 9.93861 2.73024 10.1858 2.42646 10.1858C2.12271 10.1858 1.87555 9.93861 1.87555 9.63483Z" fill="#09BC8A"/>
<path d="M0 0V0.9375H0.464656V2.39387L1.02184 4.96875H3.83122L4.38841 2.39387V0.9375H6.03813V2.39387L6.59531 4.96875H9.40466L9.96187 2.39387V0.9375H11.6116V2.39387L12.1688 4.96875H14.9782L15.5353 2.39387V0.9375H16V0H0ZM1.77816 4.03125L1.51444 2.8125H3.33862L3.07491 4.03125H1.77816ZM3.45091 1.875H1.40216V0.9375H3.45091V1.875ZM7.35162 4.03125L7.08787 2.8125H8.91206L8.64831 4.03125H7.35162ZM9.02437 1.875H6.97563V0.9375H9.02441V1.875H9.02437ZM12.9251 4.03125L12.6614 2.8125H14.4856L14.2219 4.03125H12.9251ZM14.5978 1.875H12.5491V0.9375H14.5978V1.875Z" fill="#09BC8A"/>
<path d="M13.0407 12.8731L13.032 12.8818C12.8348 13.0789 12.5728 13.1875 12.294 13.1875C12.0152 13.1875 11.7531 13.0789 11.5565 12.8823L11.5467 12.8725C10.7743 12.1001 9.51741 12.1001 8.74438 12.8731L8.73566 12.8818C8.32875 13.2887 7.66663 13.2887 7.26022 12.8823L7.25041 12.8725C6.47794 12.1001 5.2211 12.1001 4.44806 12.8731L4.43935 12.8818C4.24222 13.0789 3.98013 13.1875 3.70134 13.1875C3.42256 13.1875 3.16047 13.0789 2.96391 12.8823L2.95409 12.8725C2.18163 12.1001 0.924782 12.1001 0.151751 12.8731L0.010376 13.0149V16H15.9895V13.0193L15.843 12.8725C15.0705 12.1001 13.8137 12.1001 13.0407 12.8731ZM15.0521 15.0625H0.947907V13.4231C1.35528 13.1328 1.926 13.1703 2.29122 13.5354L2.30047 13.5447C3.07294 14.3172 4.32978 14.3172 5.10225 13.5447L5.1115 13.5355C5.51844 13.1285 6.18053 13.1286 6.58747 13.5355L6.59672 13.5448C6.97097 13.9189 7.4685 14.125 7.99769 14.125C8.52688 14.125 9.02438 13.9189 9.3986 13.5447L9.40784 13.5354C9.81478 13.1285 10.4769 13.1285 10.8838 13.5354L10.8931 13.5447C11.6655 14.3172 12.9224 14.3172 13.6948 13.5447L13.7041 13.5355C14.0707 13.1688 14.6446 13.1325 15.052 13.4264V15.0625H15.0521Z" fill="#09BC8A"/>
</svg>
