<svg width="16" height="16" viewBox="0 0 16 16" fill="none" xmlns="http://www.w3.org/2000/svg">
<path d="M10.777 3.526C9.959 2.482 9.113 1.404 8.431 0.246C8.341 0.094 8.177 0 8 0C7.823 0 7.659 0.094 7.57 0.246C6.888 1.403 6.042 2.482 5.224 3.525C3.566 5.639 2 7.636 2 10C2 13.309 4.691 16 8 16C11.309 16 14 13.309 14 10C14 7.637 12.435 5.64 10.777 3.526ZM8 15C5.243 15 3 12.757 3 10C3 7.981 4.462 6.117 6.011 4.142C6.687 3.28 7.381 2.395 8 1.447C8.619 2.395 9.313 3.281 9.989 4.143C11.538 6.117 13 7.982 13 10C13 12.757 10.757 15 8 15Z" fill="#09BC8A"/>
<path d="M6.5 6C5.673 6 5 6.673 5 7.5C5 8.327 5.673 9 6.5 9C7.327 9 8 8.327 8 7.5C8 6.673 7.327 6 6.5 6ZM6.5 8C6.224 8 6 7.776 6 7.5C6 7.224 6.224 7 6.5 7C6.776 7 7 7.224 7 7.5C7 7.776 6.776 8 6.5 8Z" fill="#09BC8A"/>
<path d="M9.5 11C8.673 11 8 11.673 8 12.5C8 13.327 8.673 14 9.5 14C10.327 14 11 13.327 11 12.5C11 11.673 10.327 11 9.5 11ZM9.5 13C9.225 13 9 12.775 9 12.5C9 12.225 9.225 12 9.5 12C9.775 12 10 12.225 10 12.5C10 12.775 9.775 13 9.5 13Z" fill="#09BC8A"/>
<path d="M10.8529 7.14704C10.6579 6.95204 10.3409 6.95204 10.1459 7.14704L5.14588 12.147C4.95088 12.342 4.95088 12.659 5.14588 12.854C5.24388 12.951 5.37188 13 5.49988 13C5.62788 13 5.75588 12.951 5.85288 12.854L10.8529 7.85404C11.0479 7.65904 11.0479 7.34204 10.8529 7.14704Z" fill="#09BC8A"/>
</svg>
