<svg width="16" height="16" viewBox="0 0 16 16" fill="none" xmlns="http://www.w3.org/2000/svg">
<g clip-path="url(#clip0)">
<path d="M16 4.68152C16 2.84106 14.5027 1.34375 12.6622 1.34375C10.9803 1.34375 9.58521 2.59424 9.3573 4.21436H5.83313C5.58655 4.21436 5.38232 4.40588 5.36682 4.65198L5.12341 8.48804L3.68713 7.05164C3.69629 6.9718 3.70154 6.89099 3.70154 6.80945C3.70154 6.25159 3.48438 5.72729 3.08997 5.33289C2.90747 5.15039 2.61169 5.15039 2.4292 5.33289L0.136841 7.62512C0.0491943 7.71277 0 7.83167 0 7.95557C0 8.07947 0.0491943 8.19836 0.136841 8.28601C0.543945 8.69299 1.07861 8.89661 1.6134 8.89661C1.70825 8.89661 1.8031 8.88989 1.89722 8.87708L4.90784 11.8877L4.76245 14.1792C4.75427 14.308 4.7998 14.4344 4.88806 14.5286C4.97644 14.6227 5.09973 14.676 5.22876 14.676H12.6622C12.7913 14.676 12.9146 14.6227 13.0029 14.5286C13.0912 14.4344 13.1367 14.308 13.1285 14.1792L12.7377 8.01843C14.5435 7.97815 16 6.49683 16 4.68152ZM11.6193 5.1488L11.6627 5.83264H6.22827L6.27161 5.1488H11.6193ZM6.16907 6.76709H11.7219L12.1644 13.7416H5.72656L6.16907 6.76709ZM2.69019 6.39343C2.7406 6.52441 2.76709 6.66492 2.76709 6.80945C2.76709 7.11755 2.64697 7.40723 2.4292 7.62512C2.09692 7.9574 1.6106 8.04419 1.198 7.88562L2.69019 6.39343ZM2.84058 8.4989C2.92786 8.43542 3.01135 8.36462 3.08997 8.28601C3.17639 8.19958 3.25378 8.10657 3.32275 8.00879L5.04468 9.73071L4.98669 10.6449L2.84058 8.4989ZM12.6785 7.08447L12.5242 4.65198C12.5085 4.40588 12.3044 4.21436 12.0579 4.21436H10.3048C10.5229 3.11206 11.4968 2.2782 12.6621 2.2782C13.9873 2.2782 15.0654 3.35632 15.0654 4.68152C15.0656 6.00122 13.9961 7.07556 12.6785 7.08447Z" fill="#09BC8A"/>
</g>
<defs>
<clipPath id="clip0">
<rect width="16" height="16" fill="white"/>
</clipPath>
</defs>
</svg>
