<svg width="16" height="16" viewBox="0 0 16 16" fill="none" xmlns="http://www.w3.org/2000/svg">
<path fill-rule="evenodd" clip-rule="evenodd" d="M2.18182 5.5C1.78016 5.5 1.45455 5.83579 1.45455 6.25V13.75C1.45455 14.1642 1.78016 14.5 2.18182 14.5H13.8182C14.2198 14.5 14.5455 14.1642 14.5455 13.75V6.25C14.5455 5.83579 14.2198 5.5 13.8182 5.5H2.18182ZM0 6.25C0 5.00736 0.976833 4 2.18182 4H13.8182C15.0232 4 16 5.00736 16 6.25V13.75C16 14.9926 15.0232 16 13.8182 16H2.18182C0.976833 16 0 14.9926 0 13.75V6.25Z" fill="#09BC8A"/>
<path fill-rule="evenodd" clip-rule="evenodd" d="M4.70294 0.65901C5.15303 0.237053 5.76348 0 6.4 0H9.6C10.2365 0 10.847 0.237053 11.2971 0.65901C11.7471 1.08097 12 1.65326 12 2.25V14.25C12 14.6642 11.6418 15 11.2 15C10.7582 15 10.4 14.6642 10.4 14.25V2.25C10.4 2.05109 10.3157 1.86032 10.1657 1.71967C10.0157 1.57902 9.81217 1.5 9.6 1.5H6.4C6.18783 1.5 5.98434 1.57902 5.83431 1.71967C5.68429 1.86032 5.6 2.05109 5.6 2.25V14.25C5.6 14.6642 5.24183 15 4.8 15C4.35817 15 4 14.6642 4 14.25V2.25C4 1.65326 4.25286 1.08097 4.70294 0.65901Z" fill="#09BC8A"/>
</svg>
