<svg width="16" height="16" viewBox="0 0 16 16" fill="none" xmlns="http://www.w3.org/2000/svg">
<g clip-path="url(#clip0)">
<path fill-rule="evenodd" clip-rule="evenodd" d="M6.01675 0.683418C6.45434 0.245833 7.04783 0 7.66667 0C8.2855 0 8.879 0.245833 9.31658 0.683418C9.75417 1.121 10 1.7145 10 2.33333V9.50601C10.508 9.92506 10.8956 10.4748 11.119 11.0991C11.384 11.8398 11.4038 12.646 11.1755 13.3988C10.9471 14.1515 10.4827 14.8109 9.85091 15.2795C9.21908 15.7481 8.4533 16.0011 7.66667 16.0011C6.88003 16.0011 6.11425 15.7481 5.48242 15.2795C4.85059 14.8109 4.38622 14.1515 4.15788 13.3988C3.92953 12.646 3.94934 11.8398 4.21436 11.0991C4.43774 10.4748 4.82536 9.92506 5.33333 9.50601V2.33333C5.33333 1.7145 5.57917 1.121 6.01675 0.683418ZM7.66667 1.33333C7.40145 1.33333 7.1471 1.43869 6.95956 1.62623C6.77202 1.81376 6.66667 2.06812 6.66667 2.33333V9.84C6.66667 10.0627 6.55551 10.2706 6.37037 10.3943C5.95414 10.6724 5.63839 11.077 5.46974 11.5483C5.30109 12.0197 5.28849 12.5327 5.4338 13.0118C5.57911 13.4908 5.87462 13.9104 6.27669 14.2086C6.67877 14.5068 7.16608 14.6678 7.66667 14.6678C8.16725 14.6678 8.65457 14.5068 9.05664 14.2086C9.45871 13.9104 9.75423 13.4908 9.89953 13.0118C10.0448 12.5327 10.0322 12.0197 9.86359 11.5483C9.69494 11.077 9.37919 10.6724 8.96296 10.3943C8.77783 10.2706 8.66667 10.0627 8.66667 9.84V2.33333C8.66667 2.06812 8.56131 1.81376 8.37377 1.62623C8.18624 1.43869 7.93188 1.33333 7.66667 1.33333Z" fill="#09BC8A"/>
</g>
<defs>
<clipPath id="clip0">
<rect width="16" height="16" fill="white"/>
</clipPath>
</defs>
</svg>
