<svg width="16" height="16" viewBox="0 0 16 16" fill="none" xmlns="http://www.w3.org/2000/svg">
<g clip-path="url(#clip0)">
<path fill-rule="evenodd" clip-rule="evenodd" d="M1.97151 10.7715C2.72166 10.0214 3.73909 9.59995 4.79997 9.59995H11.2C12.2609 9.59995 13.2783 10.0214 14.0285 10.7715C14.7786 11.5217 15.2001 12.5391 15.2001 13.6V15.2C15.2001 15.6418 14.8419 16 14.4001 16C13.9582 16 13.6001 15.6418 13.6001 15.2V13.6C13.6001 12.9635 13.3472 12.353 12.8971 11.9029C12.447 11.4528 11.8366 11.2 11.2 11.2H4.79997C4.16344 11.2 3.55299 11.4528 3.10289 11.9029C2.6528 12.353 2.39994 12.9635 2.39994 13.6V15.2C2.39994 15.6418 2.04177 16 1.59993 16C1.1581 16 0.799927 15.6418 0.799927 15.2V13.6C0.799927 12.5391 1.22136 11.5217 1.97151 10.7715Z" fill="#09BC8A"/>
<path fill-rule="evenodd" clip-rule="evenodd" d="M7.99998 1.59986C6.67448 1.59986 5.59995 2.67439 5.59995 3.99989C5.59995 5.32538 6.67448 6.39991 7.99998 6.39991C9.32548 6.39991 10.4 5.32538 10.4 3.99989C10.4 2.67439 9.32548 1.59986 7.99998 1.59986ZM3.99994 3.99989C3.99994 1.79073 5.79082 -0.000152588 7.99998 -0.000152588C10.2091 -0.000152588 12 1.79073 12 3.99989C12 6.20905 10.2091 7.99993 7.99998 7.99993C5.79082 7.99993 3.99994 6.20905 3.99994 3.99989Z" fill="#09BC8A"/>
</g>
<defs>
<clipPath id="clip0">
<rect width="16" height="16" fill="white"/>
</clipPath>
</defs>
</svg>
