<svg width="16" height="16" viewBox="0 0 16 16" fill="none" xmlns="http://www.w3.org/2000/svg">
<g clip-path="url(#clip0)">
<path fill-rule="evenodd" clip-rule="evenodd" d="M2.90899 7.9998C2.50733 7.9998 2.18172 8.32541 2.18172 8.72708V13.818C2.18172 14.2196 2.50733 14.5453 2.90899 14.5453H13.0908C13.4925 14.5453 13.8181 14.2196 13.8181 13.818V8.72708C13.8181 8.32541 13.4925 7.9998 13.0908 7.9998H2.90899ZM0.727173 8.72708C0.727173 7.52209 1.70401 6.54526 2.90899 6.54526H13.0908C14.2958 6.54526 15.2726 7.52209 15.2726 8.72708V13.818C15.2726 15.023 14.2958 15.9998 13.0908 15.9998H2.90899C1.70401 15.9998 0.727173 15.023 0.727173 13.818V8.72708Z" fill="#172A3A"/>
<path d="M7.99987 1.45455C7.22833 1.45455 6.48839 1.76104 5.94283 2.3066C5.39727 2.85216 5.09078 3.5921 5.09078 4.36364V7.27273C5.09078 7.67439 4.76516 8 4.3635 8C3.96184 8 3.63623 7.67439 3.63623 7.27273V4.36364C3.63623 3.20633 4.09597 2.09642 4.91431 1.27808C5.73265 0.459739 6.84256 0 7.99987 0C9.15718 0 10.2671 0.459739 11.0854 1.27808C11.7311 1.92375 12.1535 2.75093 12.3031 3.63969C12.3697 4.03579 12.0379 4.36364 11.6362 4.36364C11.2346 4.36364 10.9179 4.03307 10.8185 3.64389C10.6904 3.14207 10.4293 2.67904 10.0569 2.3066C9.51134 1.76104 8.77141 1.45455 7.99987 1.45455Z" fill="#172A3A"/>
</g>
<defs>
<clipPath id="clip0">
<rect width="16" height="16" fill="white"/>
</clipPath>
</defs>
</svg>
