<svg width="16" height="12" viewBox="0 0 16 12" fill="none" xmlns="http://www.w3.org/2000/svg">
<path fill-rule="evenodd" clip-rule="evenodd" d="M3.90909 0.372161C4.96062 -0.00338531 6.08358 -0.0764928 7.19739 0.146269C8.32589 0.371969 9.30023 0.899243 10.1151 1.64003C10.8337 2.29328 11.3134 3.14609 11.6191 3.99999H12C13.0206 3.99999 14.0648 4.38818 14.8052 5.19472C15.6118 5.93516 16 6.97941 16 7.99999C16 9.05585 15.5216 10.0815 14.817 10.7924C14.0759 11.6077 13.026 12 12 12H5.99998C4.89194 12 3.76314 11.7066 2.8403 11.0948C1.85667 10.4864 1.11978 9.59056 0.612995 8.64939C0.082793 7.66473 -0.146884 6.52386 0.00582395 5.37855C0.155209 4.25816 0.602652 3.21864 1.26664 2.33332C1.94234 1.4324 2.84833 0.751003 3.90909 0.372161ZM6.9359 1.45371C6.04971 1.27647 5.17267 1.3367 4.35753 1.62782C3.55162 1.91564 2.85762 2.43425 2.33331 3.13332C1.7973 3.848 1.44474 4.67515 1.32746 5.55477C1.2135 6.40945 1.38383 7.26858 1.78696 8.01726C2.21174 8.80614 2.80481 9.50736 3.54938 9.96555C3.55625 9.96978 3.56306 9.97414 3.56978 9.97862C4.24507 10.4288 5.11207 10.6667 5.99998 10.6667H12C12.7018 10.6667 13.3795 10.3965 13.8378 9.88735C13.8456 9.87866 13.8536 9.87018 13.8619 9.86192C14.3506 9.37321 14.6666 8.67133 14.6666 7.99999C14.6666 7.29813 14.3965 6.62043 13.8873 6.16219C13.87 6.14655 13.8534 6.13001 13.8378 6.11263C13.3795 5.60347 12.7018 5.33332 12 5.33332H11.1333C10.8357 5.33332 10.5741 5.136 10.4923 4.8498C10.2468 3.99065 9.83031 3.18308 9.21819 2.62662C8.56639 2.03407 7.8074 1.62801 6.9359 1.45371Z" fill="#172A3A"/>
</svg>
