<svg width="16" height="14" viewBox="0 0 16 14" fill="none" xmlns="http://www.w3.org/2000/svg">
<path d="M16 3.68152C16 1.84106 14.5027 0.34375 12.6622 0.34375C10.9803 0.34375 9.58521 1.59424 9.3573 3.21436H5.83313C5.58655 3.21436 5.38232 3.40588 5.36682 3.65198L5.12341 7.48804L3.68713 6.05164C3.69629 5.9718 3.70154 5.89099 3.70154 5.80945C3.70154 5.25159 3.48438 4.72729 3.08997 4.33289C2.90747 4.15039 2.61169 4.15039 2.4292 4.33289L0.136841 6.62512C0.0491943 6.71277 0 6.83167 0 6.95557C0 7.07947 0.0491943 7.19836 0.136841 7.28601C0.543945 7.69299 1.07861 7.89661 1.6134 7.89661C1.70825 7.89661 1.8031 7.88989 1.89722 7.87708L4.90784 10.8877L4.76245 13.1792C4.75427 13.308 4.7998 13.4344 4.88806 13.5286C4.97644 13.6227 5.09973 13.676 5.22876 13.676H12.6622C12.7913 13.676 12.9146 13.6227 13.0029 13.5286C13.0912 13.4344 13.1367 13.308 13.1285 13.1792L12.7377 7.01843C14.5435 6.97815 16 5.49683 16 3.68152ZM11.6193 4.1488L11.6627 4.83264H6.22827L6.27161 4.1488H11.6193ZM6.16907 5.76709H11.7219L12.1644 12.7416H5.72656L6.16907 5.76709ZM2.69019 5.39343C2.7406 5.52441 2.76709 5.66492 2.76709 5.80945C2.76709 6.11755 2.64697 6.40723 2.4292 6.62512C2.09692 6.9574 1.6106 7.04419 1.198 6.88562L2.69019 5.39343ZM2.84058 7.4989C2.92786 7.43542 3.01135 7.36462 3.08997 7.28601C3.17639 7.19958 3.25378 7.10657 3.32275 7.00879L5.04468 8.73071L4.98669 9.6449L2.84058 7.4989ZM12.6785 6.08447L12.5242 3.65198C12.5085 3.40588 12.3044 3.21436 12.0579 3.21436H10.3048C10.5229 2.11206 11.4968 1.2782 12.6621 1.2782C13.9873 1.2782 15.0654 2.35632 15.0654 3.68152C15.0656 5.00122 13.9961 6.07556 12.6785 6.08447Z" fill="#172A3A"/>
</svg>
