<svg width="16" height="16" viewBox="0 0 16 16" fill="none" xmlns="http://www.w3.org/2000/svg">
<g clip-path="url(#clip0)">
<path fill-rule="evenodd" clip-rule="evenodd" d="M8 5.33333C6.52724 5.33333 5.33333 6.52724 5.33333 8C5.33333 9.47276 6.52724 10.6667 8 10.6667C9.47276 10.6667 10.6667 9.47276 10.6667 8C10.6667 6.52724 9.47276 5.33333 8 5.33333ZM4 8C4 5.79086 5.79086 4 8 4C10.2091 4 12 5.79086 12 8C12 10.2091 10.2091 12 8 12C5.79086 12 4 10.2091 4 8Z" fill="#172A3A"/>
<path fill-rule="evenodd" clip-rule="evenodd" d="M7.99998 0C8.36817 0 8.66665 0.298477 8.66665 0.666667V2C8.66665 2.36819 8.36817 2.66667 7.99998 2.66667C7.63179 2.66667 7.33331 2.36819 7.33331 2V0.666667C7.33331 0.298477 7.63179 0 7.99998 0Z" fill="#172A3A"/>
<path fill-rule="evenodd" clip-rule="evenodd" d="M7.99998 13.3333C8.36817 13.3333 8.66665 13.6318 8.66665 14V15.3333C8.66665 15.7015 8.36817 16 7.99998 16C7.63179 16 7.33331 15.7015 7.33331 15.3333V14C7.33331 13.6318 7.63179 13.3333 7.99998 13.3333Z" fill="#172A3A"/>
<path fill-rule="evenodd" clip-rule="evenodd" d="M2.34193 2.34194C2.60228 2.0816 3.02439 2.0816 3.28474 2.34194L4.23141 3.28861C4.49176 3.54896 4.49176 3.97107 4.23141 4.23142C3.97106 4.49177 3.54895 4.49177 3.2886 4.23142L2.34193 3.28475C2.08158 3.0244 2.08158 2.60229 2.34193 2.34194Z" fill="#172A3A"/>
<path fill-rule="evenodd" clip-rule="evenodd" d="M11.7686 11.7686C12.029 11.5082 12.4511 11.5082 12.7114 11.7686L13.6581 12.7153C13.9185 12.9756 13.9185 13.3977 13.6581 13.6581C13.3978 13.9184 12.9756 13.9184 12.7153 13.6581L11.7686 12.7114C11.5083 12.4511 11.5083 12.0289 11.7686 11.7686Z" fill="#172A3A"/>
<path fill-rule="evenodd" clip-rule="evenodd" d="M0 8.00001C0 7.63182 0.298477 7.33334 0.666667 7.33334H2C2.36819 7.33334 2.66667 7.63182 2.66667 8.00001C2.66667 8.3682 2.36819 8.66668 2 8.66668H0.666667C0.298477 8.66668 0 8.3682 0 8.00001Z" fill="#172A3A"/>
<path fill-rule="evenodd" clip-rule="evenodd" d="M13.3333 8.00001C13.3333 7.63182 13.6318 7.33334 14 7.33334H15.3333C15.7015 7.33334 16 7.63182 16 8.00001C16 8.3682 15.7015 8.66668 15.3333 8.66668H14C13.6318 8.66668 13.3333 8.3682 13.3333 8.00001Z" fill="#172A3A"/>
<path fill-rule="evenodd" clip-rule="evenodd" d="M4.23141 11.7686C4.49176 12.0289 4.49176 12.4511 4.23141 12.7114L3.28474 13.6581C3.02439 13.9184 2.60228 13.9184 2.34193 13.6581C2.08158 13.3977 2.08158 12.9756 2.34193 12.7153L3.2886 11.7686C3.54895 11.5082 3.97106 11.5082 4.23141 11.7686Z" fill="#172A3A"/>
<path fill-rule="evenodd" clip-rule="evenodd" d="M13.6581 2.34194C13.9185 2.60229 13.9185 3.0244 13.6581 3.28475L12.7114 4.23142C12.4511 4.49177 12.029 4.49177 11.7686 4.23142C11.5083 3.97107 11.5083 3.54896 11.7686 3.28861L12.7153 2.34194C12.9756 2.0816 13.3978 2.0816 13.6581 2.34194Z" fill="#172A3A"/>
</g>
<defs>
<clipPath id="clip0">
<rect width="16" height="16" fill="white"/>
</clipPath>
</defs>
</svg>
