<svg width="16" height="16" viewBox="0 0 16 16" fill="none" xmlns="http://www.w3.org/2000/svg">
<g clip-path="url(#clip0)">
<path fill-rule="evenodd" clip-rule="evenodd" d="M4.39959 1.49134C5.35447 0.53645 6.64958 0 8 0C9.35041 0 10.6455 0.53645 11.6004 1.49134C12.5553 2.44623 13.0917 3.74133 13.0917 5.09175C13.0917 7.53045 13.6133 9.04486 14.094 9.92611C14.3354 10.3686 14.5704 10.6588 14.7336 10.8312C14.8154 10.9175 14.8797 10.9748 14.9184 11.007C14.9378 11.0232 14.9508 11.0331 14.9564 11.0372C14.9573 11.0379 14.9579 11.0384 14.9585 11.0388C15.2192 11.2179 15.3346 11.5455 15.2427 11.8491C15.1498 12.1559 14.8671 12.3657 14.5465 12.3657H1.45346C1.13292 12.3657 0.850168 12.1559 0.757281 11.8491C0.66538 11.5455 0.780773 11.2179 1.04153 11.0388C1.04204 11.0384 1.04274 11.0379 1.04361 11.0372C1.04921 11.0331 1.0622 11.0232 1.08156 11.007C1.12027 10.9748 1.18456 10.9175 1.26638 10.8312C1.42962 10.6588 1.66463 10.3686 1.90598 9.92611C2.38666 9.04486 2.90825 7.53045 2.90825 5.09175C2.90825 3.74133 3.4447 2.44623 4.39959 1.49134ZM1.04888 11.0338C1.04894 11.0337 1.049 11.0337 1.04906 11.0337C1.04905 11.0337 1.04905 11.0337 1.04905 11.0337L1.04888 11.0338ZM3.01686 10.9109H12.9831C12.9278 10.8202 12.8722 10.7242 12.8169 10.6227C12.2065 9.50365 11.637 7.7448 11.637 5.09175C11.637 4.12717 11.2538 3.20209 10.5717 2.52003C9.88965 1.83796 8.96458 1.45479 8 1.45479C7.03541 1.45479 6.11034 1.83796 5.42827 2.52003C4.74621 3.20209 4.36303 4.12717 4.36303 5.09175C4.36303 7.7448 3.79353 9.50365 3.18313 10.6227C3.12777 10.7242 3.07221 10.8202 3.01686 10.9109Z" fill="#172A3A"/>
<path fill-rule="evenodd" clip-rule="evenodd" d="M6.37663 13.9186C6.72412 13.717 7.16923 13.8353 7.37081 14.1828C7.43475 14.293 7.52653 14.3845 7.63695 14.4481C7.74737 14.5117 7.87257 14.5452 8 14.5452C8.12743 14.5452 8.25263 14.5117 8.36305 14.4481C8.47348 14.3845 8.56525 14.293 8.62919 14.1828C8.83077 13.8353 9.27588 13.717 9.62337 13.9186C9.97087 14.1202 10.0892 14.5653 9.88758 14.9128C9.69576 15.2435 9.42043 15.518 9.08915 15.7088C8.75788 15.8996 8.38229 16 8 16C7.61771 16 7.24212 15.8996 6.91085 15.7088C6.57957 15.518 6.30424 15.2435 6.11242 14.9128C5.91084 14.5653 6.02913 14.1202 6.37663 13.9186Z" fill="#172A3A"/>
</g>
<defs>
<clipPath id="clip0">
<rect width="16" height="16" fill="white"/>
</clipPath>
</defs>
</svg>
