<svg width="8" height="16" viewBox="0 0 8 16" fill="none" xmlns="http://www.w3.org/2000/svg">
<path fill-rule="evenodd" clip-rule="evenodd" d="M2.01675 0.683418C2.45434 0.245833 3.04783 0 3.66667 0C4.2855 0 4.879 0.245833 5.31658 0.683418C5.75417 1.121 6 1.7145 6 2.33333V9.50601C6.50797 9.92506 6.89559 10.4748 7.11898 11.0991C7.384 11.8398 7.4038 12.646 7.17546 13.3988C6.94712 14.1515 6.48274 14.8109 5.85091 15.2795C5.21908 15.7481 4.4533 16.0011 3.66667 16.0011C2.88003 16.0011 2.11425 15.7481 1.48242 15.2795C0.850594 14.8109 0.386217 14.1515 0.157876 13.3988C-0.0704651 12.646 -0.0506639 11.8398 0.214355 11.0991C0.437738 10.4748 0.825359 9.92506 1.33333 9.50601V2.33333C1.33333 1.7145 1.57917 1.121 2.01675 0.683418ZM3.66667 1.33333C3.40145 1.33333 3.1471 1.43869 2.95956 1.62623C2.77202 1.81376 2.66667 2.06812 2.66667 2.33333V9.84C2.66667 10.0627 2.55551 10.2706 2.37037 10.3943C1.95414 10.6724 1.63839 11.077 1.46974 11.5483C1.30109 12.0197 1.28849 12.5327 1.4338 13.0118C1.57911 13.4908 1.87462 13.9104 2.27669 14.2086C2.67877 14.5068 3.16608 14.6678 3.66667 14.6678C4.16725 14.6678 4.65457 14.5068 5.05664 14.2086C5.45871 13.9104 5.75423 13.4908 5.89953 13.0118C6.04484 12.5327 6.03224 12.0197 5.86359 11.5483C5.69494 11.077 5.37919 10.6724 4.96296 10.3943C4.77783 10.2706 4.66667 10.0627 4.66667 9.84V2.33333C4.66667 2.06812 4.56131 1.81376 4.37377 1.62623C4.18624 1.43869 3.93188 1.33333 3.66667 1.33333Z" fill="#172A3A"/>
</svg>
