<?xml version="1.0" standalone="no"?>
<!DOCTYPE svg PUBLIC "-//W3C//DTD SVG 20010904//EN"
 "http://www.w3.org/TR/2001/REC-SVG-20010904/DTD/svg10.dtd">
<svg version="1.0" xmlns="http://www.w3.org/2000/svg"
 width="1000.000000pt" height="315.000000pt" viewBox="0 0 1000.000000 315.000000"
 preserveAspectRatio="xMidYMid meet">
<metadata>
Created by potrace 1.16, written by Peter Selinger 2001-2019
</metadata>
<g transform="translate(0.000000,315.000000) scale(0.100000,-0.100000)"
fill="#000000" stroke="none">
<path d="M1455 2916 c-237 -261 -378 -569 -401 -875 l-7 -91 -415 0 c-396 0
-416 -1 -447 -20 -64 -39 -82 -138 -37 -200 10 -14 180 -143 378 -287 197
-144 358 -268 358 -275 -1 -7 -79 -219 -173 -471 -176 -472 -182 -495 -141
-517 42 -23 72 -10 204 86 410 295 846 686 991 889 126 176 223 397 261 592
26 132 23 339 -5 473 -51 239 -183 488 -374 704 -50 57 -63 66 -92 66 -29 0
-43 -10 -100 -74z m62 -1578 c18 -21 53 -24 71 -6 8 8 12 45 12 102 l0 90 151
150 151 151 -7 -45 c-32 -205 -166 -476 -327 -661 -74 -84 -294 -288 -468
-433 -169 -141 -345 -275 -348 -267 -1 4 63 182 144 396 115 309 143 393 136
410 -5 11 -181 146 -391 298 -209 153 -381 282 -381 288 0 5 160 9 404 9 l403
0 6 -42 c24 -172 130 -406 264 -580 38 -51 49 -58 78 -58 35 0 65 28 65 61 0
9 -21 45 -46 79 -191 253 -276 530 -244 795 26 215 105 406 254 610 l51 69 3
-699 c2 -633 4 -700 19 -717z m185 1287 c25 -38 61 -102 81 -141 l36 -71 -105
-104 -104 -104 0 273 0 274 24 -29 c13 -15 44 -59 68 -98z m193 -471 c29 -166
36 -148 -135 -319 l-150 -150 0 185 0 185 123 123 122 123 12 -30 c7 -17 20
-69 28 -117z"/>
<path d="M3725 2347 c-118 -31 -207 -103 -261 -211 -30 -63 -36 -84 -36 -143
-1 -110 39 -179 147 -253 23 -16 114 -64 201 -107 170 -84 234 -132 234 -176
0 -77 -63 -120 -175 -120 -82 0 -149 20 -230 68 -66 40 -51 45 -163 -54 -58
-51 -70 -66 -61 -78 25 -29 187 -130 251 -156 195 -78 389 -47 532 84 96 87
146 230 117 334 -29 108 -133 203 -301 276 -170 73 -245 110 -267 131 -48 45
-17 121 62 154 70 29 196 10 251 -38 l34 -30 90 67 c49 37 90 73 90 80 0 18
-75 82 -130 110 -121 62 -285 88 -385 62z"/>
<path d="M5302 2300 c-49 -30 -58 -59 -45 -137 7 -36 16 -70 22 -76 16 -16
124 -21 164 -8 40 14 57 48 57 116 0 65 -17 102 -52 114 -48 17 -110 13 -146
-9z"/>
<path d="M8765 2302 c-53 -33 -58 -45 -52 -124 4 -43 12 -77 21 -87 20 -19
123 -27 169 -12 32 11 37 17 47 63 8 38 8 66 0 104 -10 45 -15 54 -42 63 -47
16 -109 13 -143 -7z"/>
<path d="M8130 2085 l0 -135 -60 0 -60 0 0 -110 0 -110 59 0 59 0 4 -212 c5
-244 17 -294 85 -360 48 -45 70 -56 137 -69 47 -8 210 2 222 14 2 1 -1 20 -6
42 -4 22 -13 72 -20 110 l-11 70 -43 -3 c-34 -3 -49 1 -70 20 -24 20 -29 35
-36 98 -5 41 -9 123 -10 183 l0 107 85 0 85 0 0 110 0 110 -85 0 -85 0 0 135
0 135 -125 0 -125 0 0 -135z"/>
<path d="M4705 1967 c-122 -32 -240 -132 -298 -254 -30 -65 -32 -74 -32 -188
0 -115 1 -123 32 -188 41 -86 135 -182 217 -222 111 -54 286 -44 409 23 46 24
137 113 137 133 0 12 -146 109 -163 109 -8 0 -21 -7 -28 -17 -40 -48 -175 -71
-234 -40 -144 75 -155 303 -19 396 60 41 175 36 189 -8 4 -15 24 -20 107 -30
55 -6 103 -9 106 -6 11 10 14 120 5 155 -11 43 -70 90 -150 120 -72 27 -207
35 -278 17z"/>
<path d="M5923 1962 c-42 -15 -53 -16 -53 -5 0 10 -25 13 -115 13 l-115 0 0
-440 0 -440 135 0 135 0 0 278 c0 304 3 322 62 366 35 25 110 26 154 3 63 -33
69 -60 72 -369 l3 -278 130 0 131 0 -4 278 c-3 262 -2 279 17 311 31 53 67 75
125 75 58 0 94 -22 125 -75 18 -31 20 -55 23 -311 l4 -278 124 0 124 0 0 293
c0 316 -5 358 -55 437 -34 53 -100 106 -164 132 -47 19 -75 23 -176 23 -104 0
-127 -3 -171 -23 -29 -13 -64 -36 -78 -51 l-27 -28 -32 30 c-56 52 -111 71
-222 74 -78 3 -111 -1 -152 -15z"/>
<path d="M7395 1959 c-211 -74 -332 -279 -297 -504 41 -264 294 -432 564 -374
83 18 135 45 193 100 47 45 113 136 103 143 -1 1 -49 13 -106 25 l-102 22 -33
-27 c-88 -74 -220 -73 -300 4 -29 27 -57 72 -57 92 0 7 99 10 305 10 l305 0 0
53 c-1 140 -65 304 -151 381 -71 64 -141 88 -264 93 -82 3 -110 0 -160 -18z
m243 -211 c22 -15 48 -45 61 -70 l21 -43 -176 -3 c-97 -1 -179 -1 -181 2 -7 7
34 80 59 103 35 33 67 43 125 40 35 -3 64 -12 91 -29z"/>
<path d="M9405 1966 c-121 -29 -240 -131 -298 -253 -30 -65 -32 -74 -32 -188
0 -115 1 -123 32 -188 42 -88 135 -182 218 -222 155 -74 387 -29 500 97 25 27
45 54 45 59 0 5 -34 31 -75 59 -71 48 -105 61 -105 41 0 -5 -25 -22 -56 -37
-99 -48 -190 -33 -252 41 -84 103 -64 271 42 343 62 42 147 41 189 -3 18 -19
39 -25 116 -35 51 -6 96 -8 100 -5 3 4 6 44 6 90 0 78 -2 86 -28 113 -77 81
-265 122 -402 88z"/>
<path d="M5250 1530 l0 -440 125 0 125 0 0 440 0 440 -125 0 -125 0 0 -440z"/>
<path d="M8700 1530 l0 -440 130 0 130 0 0 440 0 440 -130 0 -130 0 0 -440z"/>
<path d="M2119 1888 c0 -35 -4 -85 -8 -113 l-7 -50 320 3 c176 1 317 0 314 -3
-3 -3 -151 -113 -328 -243 -178 -130 -328 -245 -334 -254 -8 -13 15 -94 103
-365 157 -478 186 -572 179 -579 -4 -3 -179 120 -390 274 l-383 279 -46 -41
c-25 -23 -43 -46 -40 -53 3 -6 183 -140 399 -297 262 -191 404 -287 427 -292
47 -9 99 11 135 52 50 57 46 77 -106 541 -74 228 -133 420 -131 427 3 7 165
128 360 270 196 142 363 266 372 276 43 48 36 144 -14 194 l-31 31 -395 3
-395 3 -1 -63z"/>
</g>
</svg>
