<svg width="17" height="11" viewBox="0 0 17 11" fill="none" xmlns="http://www.w3.org/2000/svg">
<path d="M0.392 2.65C0.392 1.90333 0.634667 1.306 1.12 0.857999C1.60533 0.400666 2.23067 0.172 2.996 0.172C3.49067 0.172 3.934 0.274666 4.326 0.48C4.718 0.676 5.026 0.965333 5.25 1.348C5.474 1.72133 5.586 2.15533 5.586 2.65C5.586 3.14467 5.46933 3.58333 5.236 3.966C5.012 4.33933 4.69933 4.62867 4.298 4.834C3.89667 5.03933 3.44867 5.142 2.954 5.142C2.18867 5.142 1.568 4.91333 1.092 4.456C0.625333 3.99867 0.392 3.39667 0.392 2.65ZM4.312 2.65C4.312 2.15533 4.18133 1.77267 3.92 1.502C3.65867 1.222 3.34133 1.082 2.968 1.082C2.604 1.082 2.29133 1.222 2.03 1.502C1.778 1.77267 1.652 2.15533 1.652 2.65C1.652 3.154 1.77333 3.54133 2.016 3.812C2.268 4.07333 2.58067 4.204 2.954 4.204C3.32733 4.204 3.64467 4.06867 3.906 3.798C4.17667 3.52733 4.312 3.14467 4.312 2.65ZM6.77261 5.114C6.77261 4.162 6.99194 3.308 7.43061 2.552C7.87861 1.796 8.48061 1.208 9.23661 0.787999C10.0019 0.358666 10.8373 0.143999 11.7426 0.143999C12.7786 0.143999 13.6979 0.400666 14.5006 0.913999C15.3126 1.418 15.9006 2.13667 16.2646 3.07H14.3466C14.0946 2.55667 13.7446 2.174 13.2966 1.922C12.8486 1.67 12.3306 1.544 11.7426 1.544C11.0986 1.544 10.5246 1.68867 10.0206 1.978C9.51661 2.26733 9.11994 2.68267 8.83061 3.224C8.55061 3.76533 8.41061 4.39533 8.41061 5.114C8.41061 5.83267 8.55061 6.46267 8.83061 7.004C9.11994 7.54533 9.51661 7.96533 10.0206 8.264C10.5246 8.55333 11.0986 8.698 11.7426 8.698C12.3306 8.698 12.8486 8.572 13.2966 8.32C13.7446 8.068 14.0946 7.68533 14.3466 7.172H16.2646C15.9006 8.10533 15.3126 8.824 14.5006 9.328C13.6979 9.832 12.7786 10.084 11.7426 10.084C10.8279 10.084 9.99261 9.874 9.23661 9.454C8.48061 9.02467 7.87861 8.432 7.43061 7.676C6.99194 6.92 6.77261 6.066 6.77261 5.114Z" fill="#172A3A"/>
</svg>
