<svg width="16" height="16" viewBox="0 0 16 16" fill="none" xmlns="http://www.w3.org/2000/svg">
<path d="M15 11C14.4477 11 14 11.4477 14 12V13.5C14 13.7761 13.7761 14 13.5 14H2.5C2.22386 14 2 13.7761 2 13.5V12C2 11.4477 1.55228 11 1 11C0.447715 11 0 11.4477 0 12V14C0 15.1 0.9 16 2 16H14C15.1 16 16 15.1 16 14V12C16 11.4477 15.5523 11 15 11ZM3.70568 4.29432C3.31594 4.68406 3.31594 5.31594 3.70568 5.70568C4.09489 6.09489 4.72572 6.0955 5.11568 5.70705L7 3.83V11C7 11.5523 7.44772 12 8 12C8.55229 12 9 11.5523 9 11V3.83L10.8843 5.70704C11.2743 6.0955 11.9051 6.09489 12.2943 5.70568C12.6841 5.31594 12.6841 4.68406 12.2943 4.29432L8 0L3.70568 4.29432Z" fill="#172A3A"/>
</svg>
