<svg width="41" height="40" viewBox="0 0 41 40" fill="none" xmlns="http://www.w3.org/2000/svg">
<path d="M14.0779 15.5792H1.9365C1.48196 15.5792 1.0789 15.872 0.938219 16.3046C0.797653 16.7366 0.95183 17.2106 1.31942 17.4777L11.9712 25.2167L6.86569 38.9115C14.7927 33.3837 20.4486 27.8462 21.6339 26.3331C24.6543 22.4774 30.8685 12.4087 20.1693 0.886311C9.79983 12.0537 14.9846 21.3266 18.225 25.265" fill="url(#paint0_linear)"/>
<path d="M1.93653 16.4655C1.86553 16.4655 1.80321 16.5106 1.78104 16.5785C1.75918 16.6459 1.78303 16.7192 1.84056 16.7609L12.4923 24.4994C12.8143 24.7335 12.9408 25.1533 12.8016 25.5262L8.71216 36.4964C15.5013 31.4866 20.0473 26.921 20.9362 25.7867C24.466 21.2806 28.9575 12.3116 20.1686 2.21064C15.8926 7.10077 14.6707 11.5643 14.9299 15.3333C14.9523 15.4112 14.9642 15.4936 14.9642 15.5792C14.9642 15.6146 14.9623 15.6494 14.9583 15.6834C15.3209 19.5445 17.2216 22.6503 18.9097 24.7018C19.2205 25.0796 19.1663 25.6382 18.7881 25.9491C18.4104 26.2605 17.8517 26.2058 17.5408 25.8278C16.0476 24.0132 13.8727 20.7262 13.297 16.4655H1.93653ZM6.86592 39.7981C6.67376 39.7981 6.48237 39.7357 6.32274 39.6124C6.01633 39.375 5.89996 38.9655 6.03516 38.602L10.9056 25.5379L0.798475 18.1948C0.117846 17.7 -0.164399 16.8302 0.0955597 16.0304C0.355604 15.2305 1.0953 14.6929 1.93653 14.6929H13.1568C13.061 10.5305 14.5859 5.59695 19.5201 0.28336C19.6875 0.10273 19.923 0 20.1694 0C20.4158 0 20.651 0.10273 20.8189 0.28336C25.6265 5.46055 27.6808 10.9511 26.9249 16.6022C26.4526 20.1341 24.9072 23.592 22.3317 26.8798C20.9303 28.6682 15.1042 34.2466 7.37254 39.6386C7.22027 39.7451 7.04272 39.7981 6.86592 39.7981Z" fill="#004821"/>
<path d="M40.2473 16.0322C39.9873 15.2323 39.2474 14.6947 38.4065 14.6947H28.3177C28.3057 15.2834 28.2644 15.8744 28.195 16.4674H38.4065C38.4772 16.4674 38.5397 16.5124 38.5617 16.5804C38.5834 16.6477 38.56 16.7208 38.5023 16.7627L27.8509 24.5012C27.5401 24.7271 27.41 25.127 27.529 25.4923L31.5973 38.0139C31.619 38.0812 31.5953 38.1546 31.538 38.196C31.5026 38.2228 31.4663 38.2279 31.4421 38.2279C31.4178 38.2279 31.3816 38.2228 31.3462 38.1966L20.6945 30.4578C20.6832 30.4498 20.6711 30.4449 20.6597 30.4375C20.2744 30.8079 19.8554 31.2011 19.4057 31.6146C19.4661 31.7201 19.5476 31.8158 19.6524 31.8914L30.3038 39.6305C30.6368 39.8725 31.0303 40 31.4421 40C31.8533 40 32.2471 39.8727 32.5804 39.6305C33.2604 39.1357 33.5429 38.2659 33.2829 37.4666L29.4135 25.5572L39.5442 18.1966C40.2247 17.7021 40.5075 16.8323 40.2473 16.0322Z" fill="#004821"/>
<path d="M23.3122 27.6468C22.8544 28.2309 21.9418 29.2054 20.6596 30.4375C20.671 30.4449 20.6831 30.4498 20.6944 30.4578L31.3461 38.1966C31.3815 38.2228 31.4177 38.2279 31.442 38.2279C31.4663 38.2279 31.5025 38.2228 31.5379 38.1961C31.5952 38.1546 31.6189 38.0812 31.5972 38.0139L27.5289 25.4923C27.4099 25.127 27.5401 24.7271 27.8508 24.5013L38.5022 16.7627C38.5599 16.7208 38.5833 16.6477 38.5616 16.5804C38.5396 16.5125 38.4771 16.4674 38.4064 16.4674H28.1949C28.183 16.5675 28.1721 16.668 28.159 16.7687C27.6568 20.5228 26.026 24.1828 23.3122 27.6468Z" fill="url(#paint1_linear)"/>
<path d="M20.1716 13.6745C19.99 13.6745 19.8088 13.6052 19.6701 13.4668C19.3934 13.19 19.3934 12.7411 19.6701 12.4637L24.3829 7.7511C24.6597 7.47459 25.1083 7.47459 25.3856 7.7511C25.6624 8.02818 25.6624 8.47704 25.3856 8.75412L20.6731 13.4668C20.5345 13.6052 20.3532 13.6745 20.1716 13.6745Z" fill="#004821"/>
<path d="M20.1717 20.9875C19.9902 20.9875 19.8089 20.9184 19.6703 20.78C19.3936 20.5032 19.3936 20.0541 19.6703 19.7773L25.8153 13.6325C26.0918 13.3557 26.5409 13.3557 26.8174 13.6325C27.0948 13.9093 27.0948 14.3581 26.8174 14.6352L20.6733 20.78C20.5347 20.9184 20.3533 20.9875 20.1717 20.9875Z" fill="#004821"/>
<path d="M20.171 23.5735C19.7794 23.5735 19.462 23.2562 19.462 22.8644V1.47167C19.462 1.08016 19.7794 0.762566 20.171 0.762566C20.5625 0.762566 20.88 1.08016 20.88 1.47167V22.8644C20.88 23.2562 20.5625 23.5735 20.171 23.5735Z" fill="#004821"/>
<defs>
<linearGradient id="paint0_linear" x1="0.88678" y1="38.9115" x2="0.88678" y2="0.873698" gradientUnits="userSpaceOnUse">
<stop stop-color="#B4EC51"/>
<stop offset="1" stop-color="#429321"/>
</linearGradient>
<linearGradient id="paint1_linear" x1="20.6596" y1="38.2279" x2="20.6596" y2="16.4554" gradientUnits="userSpaceOnUse">
<stop stop-color="#B4EC51"/>
<stop offset="1" stop-color="#429321"/>
</linearGradient>
</defs>
</svg>
