<svg width="17" height="11" viewBox="0 0 17 11" fill="none" xmlns="http://www.w3.org/2000/svg">
<path d="M9.86972 3.16C10.4764 3.16 11.0177 3.286 11.4937 3.538C11.9791 3.79 12.3571 4.16333 12.6277 4.658C12.9077 5.15267 13.0477 5.75 13.0477 6.45V11H11.4657V6.688C11.4657 5.99733 11.2931 5.47 10.9477 5.106C10.6024 4.73267 10.1311 4.546 9.53372 4.546C8.93639 4.546 8.46039 4.73267 8.10572 5.106C7.76039 5.47 7.58772 5.99733 7.58772 6.688V11H6.00572V6.688C6.00572 5.99733 5.83305 5.47 5.48772 5.106C5.14239 4.73267 4.67105 4.546 4.07372 4.546C3.47638 4.546 3.00038 4.73267 2.64572 5.106C2.30038 5.47 2.12772 5.99733 2.12772 6.688V11H0.531718V3.286H2.12772V4.168C2.38905 3.85067 2.72038 3.60333 3.12172 3.426C3.52305 3.24867 3.95238 3.16 4.40972 3.16C5.02572 3.16 5.57638 3.29067 6.06172 3.552C6.54705 3.81333 6.92038 4.19133 7.18172 4.686C7.41505 4.21933 7.77905 3.85067 8.27372 3.58C8.76839 3.3 9.30039 3.16 9.86972 3.16ZM16.9546 0.64V11H15.3586V0.64H16.9546Z" fill="#172A3A"/>
</svg>
