<svg width="24" height="24" viewBox="0 0 24 24" fill="none" xmlns="http://www.w3.org/2000/svg">
<g clip-path="url(#clip0)">
<path fill-rule="evenodd" clip-rule="evenodd" d="M6.59938 2.23701C8.03171 0.804676 9.97437 0 12 0C14.0256 0 15.9683 0.804675 17.4006 2.23701C18.8329 3.66934 19.6376 5.612 19.6376 7.63762C19.6376 11.2957 20.42 13.5673 21.141 14.8892C21.503 15.5529 21.8556 15.9883 22.1004 16.2467C22.2231 16.3763 22.3196 16.4622 22.3776 16.5105C22.4067 16.5347 22.4262 16.5496 22.4346 16.5558C22.4359 16.5568 22.4369 16.5576 22.4377 16.5581C22.8288 16.8268 23.0019 17.3183 22.8641 17.7736C22.7247 18.2338 22.3006 18.5485 21.8198 18.5485H2.18019C1.69939 18.5485 1.27525 18.2338 1.13592 17.7736C0.99807 17.3183 1.17116 16.8268 1.5623 16.5582C1.56306 16.5576 1.56411 16.5568 1.56542 16.5558C1.57382 16.5496 1.5933 16.5347 1.62234 16.5105C1.68041 16.4622 1.77684 16.3763 1.89956 16.2467C2.14443 15.9883 2.49695 15.5529 2.85896 14.8892C3.57999 13.5673 4.36237 11.2957 4.36237 7.63762C4.36237 5.612 5.16705 3.66934 6.59938 2.23701ZM1.57333 16.5507C1.57341 16.5506 1.5735 16.5506 1.57359 16.5505C1.57358 16.5505 1.57358 16.5505 1.57357 16.5505L1.57333 16.5507ZM4.5253 16.3663H19.4747C19.3917 16.2303 19.3083 16.0863 19.2253 15.9341C18.3097 14.2555 17.4554 11.6172 17.4554 7.63762C17.4554 6.19075 16.8807 4.80313 15.8576 3.78004C14.8345 2.75695 13.4469 2.18218 12 2.18218C10.5531 2.18218 9.16551 2.75695 8.14241 3.78004C7.11932 4.80313 6.54455 6.19075 6.54455 7.63762C6.54455 11.6172 5.6903 14.2555 4.77469 15.9341C4.69166 16.0863 4.60831 16.2303 4.5253 16.3663Z" fill="#172A3A"/>
<path fill-rule="evenodd" clip-rule="evenodd" d="M9.56494 20.8779C10.0862 20.5756 10.7538 20.753 11.0562 21.2742C11.1521 21.4396 11.2898 21.5768 11.4554 21.6722C11.6211 21.7676 11.8089 21.8179 12 21.8179C12.1911 21.8179 12.3789 21.7676 12.5446 21.6722C12.7102 21.5768 12.8479 21.4396 12.9438 21.2742C13.2462 20.753 13.9138 20.5756 14.4351 20.8779C14.9563 21.1803 15.1337 21.848 14.8314 22.3692C14.5436 22.8652 14.1306 23.277 13.6337 23.5632C13.1368 23.8494 12.5734 24 12 24C11.4266 24 10.8632 23.8494 10.3663 23.5632C9.86936 23.277 9.45636 22.8652 9.16863 22.3692C8.86626 21.848 9.0437 21.1803 9.56494 20.8779Z" fill="#172A3A"/>
</g>
<defs>
<clipPath id="clip0">
<rect width="24" height="24" fill="white"/>
</clipPath>
</defs>
</svg>
