<svg width="10" height="11" viewBox="0 0 10 11" fill="none" xmlns="http://www.w3.org/2000/svg">
<path d="M0.0303829 2.258C0.0303829 1.57667 0.226383 1.04467 0.618383 0.661999C1.01972 0.269999 1.53305 0.0739993 2.15838 0.0739993C2.78372 0.0739993 3.29238 0.269999 3.68438 0.661999C4.08572 1.04467 4.28638 1.57667 4.28638 2.258C4.28638 2.93933 4.08572 3.476 3.68438 3.868C3.29238 4.26 2.78372 4.456 2.15838 4.456C1.53305 4.456 1.01972 4.26 0.618383 3.868C0.226383 3.476 0.0303829 2.93933 0.0303829 2.258ZM8.57038 0.255999L2.98438 10H1.41638L7.00238 0.255999H8.57038ZM2.15838 1.04C1.57038 1.04 1.27638 1.446 1.27638 2.258C1.27638 3.07933 1.57038 3.49 2.15838 3.49C2.43838 3.49 2.65305 3.392 2.80238 3.196C2.96105 2.99067 3.04038 2.678 3.04038 2.258C3.04038 1.446 2.74638 1.04 2.15838 1.04ZM5.72838 7.984C5.72838 7.30267 5.92438 6.77067 6.31638 6.388C6.71772 5.996 7.23105 5.8 7.85638 5.8C8.47238 5.8 8.97638 5.996 9.36838 6.388C9.76972 6.77067 9.97038 7.30267 9.97038 7.984C9.97038 8.66533 9.76972 9.202 9.36838 9.594C8.97638 9.986 8.47238 10.182 7.85638 10.182C7.23105 10.182 6.71772 9.986 6.31638 9.594C5.92438 9.202 5.72838 8.66533 5.72838 7.984ZM7.84238 6.766C7.25438 6.766 6.96038 7.172 6.96038 7.984C6.96038 8.796 7.25438 9.202 7.84238 9.202C8.43038 9.202 8.72438 8.796 8.72438 7.984C8.72438 7.172 8.43038 6.766 7.84238 6.766Z" fill="#172A3A"/>
</svg>
