<svg width="17" height="21" viewBox="0 0 17 21" fill="none" xmlns="http://www.w3.org/2000/svg">
<path fill-rule="evenodd" clip-rule="evenodd" d="M12.6894 16.4137C12.9244 16.0067 12.8199 15.5076 12.4865 15.165C11.5617 14.2269 11.3363 12.7573 12.0263 11.5622L14.5263 7.23207L15.3923 7.73207C15.8686 8.00707 16.4833 7.84236 16.7583 7.36605C17.0333 6.88973 16.8686 6.27502 16.3923 6.00002L7.73205 1.00002C7.25574 0.725023 6.64103 0.889734 6.36603 1.36605C6.09103 1.84236 6.25574 2.45707 6.73205 2.73207L7.59808 3.23207L5.09808 7.5622C4.40808 8.75732 3.02267 9.29691 1.74782 8.96501C1.28445 8.8476 0.8 9.00669 0.565 9.41372L0.5 9.5263C0.225 10.0026 0.389711 10.6173 0.866025 10.8923L5.17883 13.3823L1.69615 19.4545C1.42115 19.9308 1.58586 20.5455 2.06218 20.8205C2.53849 21.0955 3.1532 20.9308 3.4282 20.4545L6.91088 14.3823L11.2583 16.8923C11.7346 17.1673 12.3494 17.0026 12.6244 16.5263L12.6894 16.4137Z" fill="#E0E0E0"/>
</svg>
