<svg width="34" height="12" viewBox="0 0 34 12" fill="none" xmlns="http://www.w3.org/2000/svg">
<path d="M2.56256 1.42C2.83323 1.06533 3.20189 0.766666 3.66856 0.523999C4.13523 0.281333 4.66256 0.16 5.25056 0.16C5.92256 0.16 6.53389 0.328 7.08456 0.663999C7.64456 0.990666 8.08323 1.45267 8.40056 2.05C8.71789 2.64733 8.87656 3.33333 8.87656 4.108C8.87656 4.88267 8.71789 5.578 8.40056 6.194C8.08323 6.80067 7.64456 7.27667 7.08456 7.622C6.53389 7.958 5.92256 8.126 5.25056 8.126C4.66256 8.126 4.13989 8.00933 3.68256 7.776C3.22523 7.53333 2.85189 7.23467 2.56256 6.88V11.668H0.966561V0.286H2.56256V1.42ZM7.25256 4.108C7.25256 3.576 7.14056 3.11867 6.91656 2.736C6.70189 2.344 6.41256 2.05 6.04856 1.854C5.69389 1.64867 5.31123 1.546 4.90056 1.546C4.49923 1.546 4.11656 1.64867 3.75256 1.854C3.39789 2.05933 3.10856 2.358 2.88456 2.75C2.66989 3.142 2.56256 3.604 2.56256 4.136C2.56256 4.668 2.66989 5.13467 2.88456 5.536C3.10856 5.928 3.39789 6.22667 3.75256 6.432C4.11656 6.63733 4.49923 6.74 4.90056 6.74C5.31123 6.74 5.69389 6.63733 6.04856 6.432C6.41256 6.21733 6.70189 5.90933 6.91656 5.508C7.14056 5.10667 7.25256 4.64 7.25256 4.108ZM12.3308 1.42C12.6015 1.06533 12.9702 0.766666 13.4368 0.523999C13.9035 0.281333 14.4308 0.16 15.0188 0.16C15.6908 0.16 16.3022 0.328 16.8528 0.663999C17.4128 0.990666 17.8515 1.45267 18.1688 2.05C18.4862 2.64733 18.6448 3.33333 18.6448 4.108C18.6448 4.88267 18.4862 5.578 18.1688 6.194C17.8515 6.80067 17.4128 7.27667 16.8528 7.622C16.3022 7.958 15.6908 8.126 15.0188 8.126C14.4308 8.126 13.9082 8.00933 13.4508 7.776C12.9935 7.53333 12.6202 7.23467 12.3308 6.88V11.668H10.7348V0.286H12.3308V1.42ZM17.0208 4.108C17.0208 3.576 16.9088 3.11867 16.6848 2.736C16.4702 2.344 16.1808 2.05 15.8168 1.854C15.4622 1.64867 15.0795 1.546 14.6688 1.546C14.2675 1.546 13.8848 1.64867 13.5208 1.854C13.1662 2.05933 12.8768 2.358 12.6528 2.75C12.4382 3.142 12.3308 3.604 12.3308 4.136C12.3308 4.668 12.4382 5.13467 12.6528 5.536C12.8768 5.928 13.1662 6.22667 13.5208 6.432C13.8848 6.63733 14.2675 6.74 14.6688 6.74C15.0795 6.74 15.4622 6.63733 15.8168 6.432C16.1808 6.21733 16.4702 5.90933 16.6848 5.508C16.9088 5.10667 17.0208 4.64 17.0208 4.108ZM29.8411 0.16C30.4478 0.16 30.9891 0.286 31.4651 0.537999C31.9505 0.789999 32.3285 1.16333 32.5991 1.658C32.8791 2.15267 33.0191 2.75 33.0191 3.45V8H31.4371V3.688C31.4371 2.99733 31.2645 2.47 30.9191 2.106C30.5738 1.73267 30.1025 1.546 29.5051 1.546C28.9078 1.546 28.4318 1.73267 28.0771 2.106C27.7318 2.47 27.5591 2.99733 27.5591 3.688V8H25.9771V3.688C25.9771 2.99733 25.8045 2.47 25.4591 2.106C25.1138 1.73267 24.6425 1.546 24.0451 1.546C23.4478 1.546 22.9718 1.73267 22.6171 2.106C22.2718 2.47 22.0991 2.99733 22.0991 3.688V8H20.5031V0.286H22.0991V1.168C22.3605 0.850666 22.6918 0.603333 23.0931 0.426C23.4945 0.248667 23.9238 0.16 24.3811 0.16C24.9971 0.16 25.5478 0.290667 26.0331 0.552C26.5185 0.813333 26.8918 1.19133 27.1531 1.686C27.3865 1.21933 27.7505 0.850666 28.2451 0.58C28.7398 0.3 29.2718 0.16 29.8411 0.16Z" fill="#172A3A"/>
</svg>
