<svg width="20" height="14" viewBox="0 0 20 14" fill="none" xmlns="http://www.w3.org/2000/svg">
<path d="M6.54 3.54C6.89 3.89 6.91 4.42 6.64 4.83C6.24 5.45 6 6.2 6 7C6 7.8 6.24 8.55 6.64 9.17C6.91 9.58 6.88 10.12 6.53 10.46C6.1 10.89 5.36 10.86 5.02 10.35C4.38 9.4 4 8.24 4 7C4 5.79 4.36 4.67 4.97 3.72C5.33 3.18 6.08 3.08 6.54 3.54ZM13.46 10.46C13.89 10.89 14.63 10.86 14.97 10.35C15.62 9.4 16 8.24 16 7C16 5.76 15.62 4.6 14.97 3.64C14.63 3.14 13.89 3.1 13.46 3.53C13.11 3.88 13.09 4.41 13.35 4.82C13.76 5.45 14 6.2 14 7C14 7.8 13.76 8.55 13.36 9.17C13.09 9.58 13.12 10.12 13.46 10.46ZM10 5C8.9 5 8 5.9 8 7C8 8.1 8.9 9 10 9C11.1 9 12 8.1 12 7C12 5.9 11.1 5 10 5ZM16.32 13.32C16.74 13.74 17.44 13.71 17.82 13.24C19.18 11.53 20 9.36 20 7C20 4.64 19.18 2.47 17.82 0.760004C17.45 0.290004 16.75 0.260003 16.32 0.680003C15.96 1.04 15.92 1.6 16.24 2C17.34 3.37 18 5.11 18 7C18 8.89 17.34 10.63 16.24 12C15.92 12.39 15.96 12.96 16.32 13.32ZM3.68 0.680003C3.26 0.260003 2.56 0.290004 2.18 0.760004C0.82 2.47 0 4.64 0 7C0 9.36 0.82 11.53 2.18 13.24C2.55 13.71 3.25 13.74 3.68 13.32C4.04 12.96 4.08 12.4 3.76 12C2.66 10.63 2 8.89 2 7C2 5.11 2.66 3.37 3.76 2C4.08 1.61 4.04 1.04 3.68 0.680003Z" fill="#09BC8A"/>
</svg>
