<svg width="16" height="22" viewBox="0 0 16 22" fill="none" xmlns="http://www.w3.org/2000/svg">
<path d="M8 3V1.21C8 0.76 7.46 0.54 7.15 0.86L4.35 3.65C4.15 3.85 4.15 4.16 4.35 4.36L7.14 7.15C7.46 7.46 8 7.24 8 6.79V5C11.31 5 14 7.69 14 11C14 11.79 13.85 12.56 13.56 13.25C13.41 13.61 13.52 14.02 13.79 14.29C14.3 14.8 15.16 14.62 15.43 13.95C15.8 13.04 16 12.04 16 11C16 6.58 12.42 3 8 3ZM8 17C4.69 17 2 14.31 2 11C2 10.21 2.15 9.44 2.44 8.75C2.59 8.39 2.48 7.98 2.21 7.71C1.7 7.2 0.84 7.38 0.57 8.05C0.2 8.96 0 9.96 0 11C0 15.42 3.58 19 8 19V20.79C8 21.24 8.54 21.46 8.85 21.14L11.64 18.35C11.84 18.15 11.84 17.84 11.64 17.64L8.85 14.85C8.54 14.54 8 14.76 8 15.21V17Z" fill="#09BC8A"/>
</svg>
