<svg width="138" height="40" viewBox="0 0 138 40" fill="none" xmlns="http://www.w3.org/2000/svg">
<path d="M45.957 24.0295L48.3604 21.9206C48.7724 22.3185 49.3542 22.6713 50.1058 22.9791C50.8574 23.2868 51.6072 23.4406 52.3553 23.4406C53.1812 23.4406 53.8213 23.2921 54.2758 22.995C54.7303 22.6979 54.9576 22.2628 54.9576 21.6898C54.9576 21.4175 54.8638 21.1584 54.6764 20.9126C54.4872 20.6686 54.2334 20.4449 53.9151 20.2415C53.5967 20.0381 53.2307 19.8356 52.8169 19.634C52.4048 19.4306 51.9698 19.2255 51.5117 19.0186C51.0537 18.8135 50.5975 18.5986 50.143 18.374C49.6885 18.1512 49.2534 17.8992 48.8378 17.618C48.4205 17.3386 48.0526 17.0397 47.7343 16.7214C47.416 16.4031 47.1613 16.0326 46.9704 15.6099C46.7776 15.1872 46.6812 14.7345 46.6812 14.2517C46.6812 13.3764 46.9173 12.5355 47.3895 11.729C47.8617 10.9209 48.5292 10.2577 49.3923 9.73953C50.257 9.22137 51.2031 8.9623 52.2306 8.9623C53.3076 8.9623 54.4164 9.19662 55.5571 9.66526C56.696 10.1339 57.5492 10.7599 58.1169 11.5434L55.6181 13.4533C55.1777 12.9846 54.748 12.6858 54.3289 12.5567C53.9098 12.4276 53.3288 12.356 52.5861 12.3418C52.5737 12.3418 52.5604 12.3418 52.5463 12.3418C51.8601 12.3418 51.3075 12.5169 50.8884 12.867C50.4551 13.2225 50.2349 13.6558 50.2278 14.1669C50.2278 14.3844 50.3251 14.5913 50.5196 14.7876C50.7159 14.9821 50.9786 15.1651 51.3075 15.3367C51.6364 15.5082 52.014 15.6815 52.4402 15.8566C52.8664 16.0317 53.3173 16.2191 53.793 16.419C54.2688 16.617 54.7427 16.8301 55.2149 17.0583C55.6871 17.2846 56.1362 17.5481 56.5624 17.8488C56.9904 18.1494 57.3689 18.473 57.6978 18.8196C58.025 19.1663 58.2867 19.5739 58.483 20.0425C58.6793 20.5112 58.7774 21.0152 58.7774 21.5546C58.7774 21.7279 58.7562 21.8985 58.7138 22.0665C58.6306 22.9065 58.2999 23.7041 57.7217 24.4592C57.1451 25.2144 56.3882 25.8245 55.451 26.2896C54.5137 26.7547 53.5172 26.9872 52.4614 26.9872C51.3703 26.9872 50.2128 26.6884 48.989 26.0906C47.7653 25.4929 46.7546 24.8059 45.957 24.0295ZM59.9738 20.6712C59.9738 19.6579 60.2134 18.6932 60.6927 17.7771C61.1719 16.8611 61.8165 16.1015 62.6265 15.4985C63.4382 14.8972 64.3162 14.5303 65.2606 14.3976L65.5869 14.334C65.7336 14.3216 65.8946 14.3154 66.0696 14.3154C66.3137 14.3154 66.5825 14.3287 66.8761 14.3552C67.8063 14.433 68.6144 14.6558 69.3006 15.0237C69.9868 15.3897 70.4236 15.7408 70.611 16.0768C70.7101 16.4411 70.7596 16.8708 70.7596 17.366C70.7525 17.3872 70.749 17.4049 70.749 17.419C70.749 17.9372 70.703 18.3148 70.611 18.5517L67.9053 18.2493L67.7382 17.923C67.6745 17.8399 67.6011 17.7559 67.518 17.671C67.1749 17.5101 66.7868 17.4296 66.3535 17.4296C66.2262 17.4296 66.0926 17.4367 65.9529 17.4509C65.2473 17.5694 64.6743 17.9177 64.234 18.496C63.7919 19.0725 63.5673 19.7905 63.5602 20.65C63.5602 21.5042 63.7813 22.216 64.2234 22.7854C64.6637 23.3566 65.2402 23.705 65.9529 23.8306C66.0997 23.8589 66.2465 23.8695 66.3933 23.8624C66.701 23.8624 67.0193 23.8093 67.3482 23.7032C68.0415 23.5635 68.5835 23.2355 68.9743 22.7191L71.2105 24.2179C71.0072 24.568 70.6782 24.9703 70.2237 25.4248C69.916 25.7184 69.4943 25.9925 68.9584 26.2471C68.4243 26.5036 67.8354 26.6875 67.1917 26.7989C66.7585 26.8962 66.3349 26.9448 65.9211 26.9448C65.6983 26.9448 65.4781 26.9315 65.2606 26.905C63.8122 26.6946 62.569 25.9863 61.5309 24.7802C60.4928 23.5724 59.9738 22.2027 59.9738 20.6712ZM75.9323 26.8201H72.4281V14.3976H75.9323V26.8201ZM72.4785 10.5592C72.6041 10.2586 72.8331 10.003 73.1656 9.79258C73.498 9.58214 73.857 9.47692 74.2425 9.47692C74.6829 9.47692 75.1268 9.58567 75.5742 9.80319C75.7705 10.2294 75.8686 10.6945 75.8686 11.1985C75.8686 11.6954 75.7705 12.1676 75.5742 12.615C75.1126 12.8184 74.6228 12.9201 74.1046 12.9201C73.636 12.9201 73.1921 12.8184 72.773 12.615C72.5767 11.8935 72.4785 11.2082 72.4785 10.5592ZM81.5958 26.8201H78.0306V14.3764H81.0414V14.9865C81.8319 14.5108 82.7338 14.273 83.7471 14.273C84.6013 14.273 85.3414 14.3914 85.9674 14.6284C86.5934 14.8672 87.1434 15.2872 87.6174 15.8884C88.1638 15.2801 88.7359 14.8583 89.3336 14.6231C89.9314 14.3897 90.6467 14.273 91.4797 14.273C91.4938 14.273 91.5079 14.273 91.5221 14.273C93.1438 14.273 94.4586 14.7133 95.4666 15.594C96.4729 16.4818 97.0149 17.6675 97.0927 19.1512C97.121 19.5562 97.1352 19.871 97.1352 20.0956V26.8201H93.6734V21.0187C93.6734 20.5218 93.6522 20.0355 93.6098 19.5597C93.5036 18.0919 92.7936 17.3474 91.4797 17.3262C90.8218 17.3262 90.316 17.5128 89.9623 17.8859C89.6104 18.2608 89.4097 18.84 89.3602 19.6234L89.3814 26.8201H85.8772L85.856 19.6446C85.7729 18.099 85.0699 17.3262 83.7471 17.3262C83.0822 17.3262 82.5684 17.5128 82.2059 17.8859C81.8416 18.2608 81.6453 18.8188 81.617 19.5597L81.5958 26.8201ZM98.4986 20.65C98.4986 19.7269 98.6719 18.8639 99.0186 18.061C99.3634 17.2563 99.8214 16.579 100.393 16.029C100.962 15.4808 101.616 15.0511 102.353 14.7398C103.092 14.4286 103.857 14.273 104.648 14.273C106.619 14.273 108.137 14.9229 109.2 16.2227C110.262 17.5243 110.794 19.329 110.794 21.6368H102.066C102.171 22.3017 102.487 22.8614 103.016 23.3159C103.543 23.7704 104.16 24.0295 104.868 24.0932C104.979 24.1073 105.094 24.1144 105.213 24.1144C105.639 24.1144 106.055 24.0304 106.462 23.8624C106.978 23.6519 107.39 23.3336 107.698 22.9074L110.574 23.5573C110.377 24.0048 110.132 24.4195 109.839 24.8014C109.545 25.1817 109.175 25.5468 108.727 25.897C108.28 26.2472 107.726 26.523 107.064 26.7246C106.403 26.928 105.678 27.0297 104.889 27.0297C104.091 27.0297 103.311 26.8794 102.549 26.5787C101.785 26.2781 101.103 25.8599 100.501 25.324C99.9001 24.7899 99.4165 24.1153 99.0504 23.3C98.6826 22.4848 98.4986 21.6014 98.4986 20.65ZM102.128 19.2759H107.375C107.318 18.6817 107.039 18.1503 106.539 17.6817C106.04 17.213 105.43 16.9787 104.709 16.9787C104.017 16.9787 103.442 17.1936 102.984 17.6233C102.526 18.0548 102.241 18.6057 102.128 19.2759ZM113.155 17.7135H111.433V14.7664H113.155V10.9677H116.638V14.7664H119.02V17.7135H116.638V21.1222C116.638 21.4653 116.645 21.7173 116.659 21.8782C116.701 22.8225 116.964 23.3681 117.447 23.5149C117.594 23.5715 117.749 23.6033 117.914 23.6104C118.078 23.6175 118.253 23.6104 118.439 23.5892C118.623 23.5679 118.743 23.5573 118.8 23.5573L119.346 26.6106C119.289 26.6106 118.943 26.6557 118.306 26.7459C117.873 26.8095 117.474 26.8414 117.11 26.8414C116.942 26.8414 116.784 26.8343 116.638 26.8201C114.448 26.569 113.301 25.1348 113.197 22.5175C113.183 22.231 113.176 21.7871 113.176 21.1858L113.155 17.7135ZM124.768 26.8201H121.264V14.3976H124.768V26.8201ZM121.317 10.5592C121.443 10.2586 121.672 10.003 122.004 9.79258C122.337 9.58214 122.695 9.47692 123.081 9.47692C123.521 9.47692 123.965 9.58567 124.413 9.80319C124.609 10.2294 124.707 10.6945 124.707 11.1985C124.707 11.6954 124.609 12.1676 124.413 12.615C123.951 12.8184 123.461 12.9201 122.943 12.9201C122.474 12.9201 122.031 12.8184 121.611 12.615C121.415 11.8935 121.317 11.2082 121.317 10.5592ZM126.394 20.6712C126.394 19.6579 126.634 18.6932 127.113 17.7771C127.592 16.8611 128.238 16.1015 129.05 15.4985C129.861 14.8972 130.739 14.5303 131.684 14.3976L132.007 14.334C132.154 14.3216 132.315 14.3154 132.49 14.3154C132.736 14.3154 133.006 14.3287 133.299 14.3552C134.229 14.433 135.038 14.6558 135.724 15.0237C136.408 15.3897 136.845 15.7408 137.034 16.0768C137.131 16.4411 137.18 16.8708 137.18 17.366C137.173 17.3872 137.169 17.4049 137.169 17.419C137.169 17.9372 137.124 18.3148 137.034 18.5517L134.326 18.2493L134.159 17.923C134.097 17.8399 134.023 17.7559 133.938 17.671C133.595 17.5101 133.207 17.4296 132.774 17.4296C132.648 17.4296 132.516 17.4367 132.376 17.4509C131.669 17.5694 131.095 17.9177 130.654 18.496C130.214 19.0725 129.99 19.7905 129.983 20.65C129.983 21.5042 130.203 22.216 130.644 22.7854C131.084 23.3566 131.662 23.705 132.376 23.8306C132.523 23.8589 132.67 23.8695 132.816 23.8624C133.124 23.8624 133.442 23.8093 133.771 23.7032C134.463 23.5635 135.005 23.2355 135.397 22.7191L137.631 24.2179C137.429 24.568 137.101 24.9703 136.647 25.4248C136.339 25.7184 135.917 25.9925 135.381 26.2471C134.846 26.5036 134.257 26.6875 133.615 26.7989C133.18 26.8962 132.756 26.9448 132.344 26.9448C132.12 26.9448 131.899 26.9315 131.684 26.905C130.235 26.6946 128.992 25.9863 127.954 24.7802C126.914 23.5724 126.394 22.2027 126.394 20.6712Z" fill="#242424"/>
<path d="M14.0779 15.5792H1.93644C1.4819 15.5792 1.07884 15.872 0.938158 16.3046C0.797592 16.7366 0.951769 17.2106 1.31936 17.4777L11.9711 25.2167L6.86563 38.9115C14.7927 33.3837 20.4485 27.8462 21.6339 26.3331C24.6543 22.4774 30.8684 12.4087 20.1693 0.886318C9.79977 12.0537 14.9845 21.3266 18.225 25.265" fill="url(#paint0_linear)"/>
<path d="M1.93653 16.4655C1.86553 16.4655 1.80321 16.5106 1.78104 16.5785C1.75918 16.6459 1.78303 16.7192 1.84056 16.7609L12.4923 24.4994C12.8143 24.7335 12.9408 25.1533 12.8016 25.5262L8.71216 36.4964C15.5013 31.4866 20.0473 26.921 20.9362 25.7867C24.466 21.2806 28.9575 12.3116 20.1686 2.21064C15.8926 7.10077 14.6707 11.5643 14.9299 15.3333C14.9523 15.4112 14.9642 15.4936 14.9642 15.5792C14.9642 15.6146 14.9623 15.6494 14.9583 15.6834C15.3209 19.5445 17.2216 22.6503 18.9097 24.7018C19.2205 25.0796 19.1663 25.6382 18.7881 25.9491C18.4104 26.2605 17.8517 26.2058 17.5408 25.8278C16.0476 24.0132 13.8727 20.7262 13.297 16.4655H1.93653ZM6.86592 39.7981C6.67376 39.7981 6.48237 39.7357 6.32274 39.6124C6.01633 39.375 5.89996 38.9655 6.03516 38.602L10.9056 25.5379L0.798475 18.1948C0.117846 17.7 -0.164399 16.8302 0.0955597 16.0304C0.355604 15.2305 1.0953 14.6929 1.93653 14.6929H13.1568C13.061 10.5305 14.5859 5.59695 19.5201 0.28336C19.6875 0.10273 19.923 0 20.1694 0C20.4158 0 20.651 0.10273 20.8189 0.28336C25.6265 5.46055 27.6808 10.9511 26.9249 16.6022C26.4526 20.1341 24.9072 23.592 22.3317 26.8798C20.9303 28.6682 15.1042 34.2466 7.37254 39.6386C7.22027 39.7451 7.04272 39.7981 6.86592 39.7981Z" fill="#004821"/>
<path d="M40.2478 16.0322C39.9879 15.2323 39.2479 14.6947 38.407 14.6947H28.3183C28.3063 15.2834 28.2649 15.8744 28.1956 16.4673H38.407C38.4778 16.4673 38.5403 16.5124 38.5622 16.5803C38.5839 16.6477 38.5605 16.7207 38.5029 16.7627L27.8514 24.5012C27.5407 24.7271 27.4106 25.127 27.5296 25.4923L31.5979 38.0139C31.6196 38.0812 31.5959 38.1545 31.5385 38.196C31.5031 38.2228 31.4669 38.2279 31.4426 38.2279C31.4184 38.2279 31.3821 38.2228 31.3468 38.1966L20.695 30.4578C20.6838 30.4498 20.6716 30.4448 20.6602 30.4375C20.2749 30.8079 19.8559 31.201 19.4062 31.6146C19.4667 31.7201 19.5482 31.8158 19.6529 31.8913L30.3044 39.6305C30.6374 39.8725 31.0309 40 31.4426 40C31.8538 40 32.2476 39.8727 32.5809 39.6305C33.2609 39.1357 33.5434 38.2659 33.2835 37.4666L29.414 25.5571L39.5447 18.1966C40.2253 17.7021 40.5081 16.8323 40.2478 16.0322Z" fill="#004821"/>
<path d="M23.3128 27.6468C22.8549 28.2309 21.9424 29.2053 20.6602 30.4375C20.6715 30.4449 20.6837 30.4498 20.6949 30.4578L31.3467 38.1966C31.3821 38.2228 31.4183 38.2279 31.4425 38.2279C31.4668 38.2279 31.503 38.2228 31.5384 38.1961C31.5958 38.1546 31.6195 38.0812 31.5978 38.0139L27.5295 25.4923C27.4105 25.127 27.5406 24.7271 27.8514 24.5012L38.5028 16.7627C38.5604 16.7208 38.5838 16.6477 38.5622 16.5804C38.5402 16.5125 38.4777 16.4674 38.4069 16.4674H28.1955C28.1835 16.5675 28.1727 16.668 28.1595 16.7687C27.6573 20.5228 26.0265 24.1828 23.3128 27.6468Z" fill="url(#paint1_linear)"/>
<path d="M20.1719 13.6745C19.9903 13.6745 19.8091 13.6052 19.6704 13.4668C19.3937 13.19 19.3937 12.7411 19.6704 12.4637L24.3832 7.7511C24.66 7.4746 25.1086 7.4746 25.3859 7.7511C25.6627 8.02818 25.6627 8.47705 25.3859 8.75413L20.6734 13.4668C20.5348 13.6052 20.3535 13.6745 20.1719 13.6745Z" fill="#004821"/>
<path d="M20.1719 20.9875C19.9903 20.9875 19.8091 20.9184 19.6704 20.78C19.3937 20.5032 19.3937 20.0541 19.6704 19.7773L25.8154 13.6325C26.0919 13.3557 26.541 13.3557 26.8175 13.6325C27.0949 13.9092 27.0949 14.3581 26.8175 14.6352L20.6734 20.78C20.5348 20.9184 20.3535 20.9875 20.1719 20.9875Z" fill="#004821"/>
<path d="M20.1719 23.5735C19.7803 23.5735 19.4629 23.2562 19.4629 22.8644V1.47166C19.4629 1.08016 19.7803 0.762558 20.1719 0.762558C20.5634 0.762558 20.881 1.08016 20.881 1.47166V22.8644C20.881 23.2562 20.5634 23.5735 20.1719 23.5735Z" fill="#004821"/>
<defs>
<linearGradient id="paint0_linear" x1="0.886719" y1="38.9115" x2="0.886719" y2="0.873706" gradientUnits="userSpaceOnUse">
<stop stop-color="#B4EC51"/>
<stop offset="1" stop-color="#429321"/>
</linearGradient>
<linearGradient id="paint1_linear" x1="20.6602" y1="38.2279" x2="20.6602" y2="16.4554" gradientUnits="userSpaceOnUse">
<stop stop-color="#B4EC51"/>
<stop offset="1" stop-color="#429321"/>
</linearGradient>
</defs>
</svg>
