<svg width="16" height="16" viewBox="0 0 16 16" fill="none" xmlns="http://www.w3.org/2000/svg">
<g clip-path="url(#clip0)">
<path fill-rule="evenodd" clip-rule="evenodd" d="M2.90911 2.9091C2.50745 2.9091 2.18184 3.23471 2.18184 3.63637V13.8182C2.18184 14.2198 2.50745 14.5455 2.90911 14.5455H13.0909C13.4926 14.5455 13.8182 14.2198 13.8182 13.8182V3.63637C13.8182 3.23471 13.4926 2.9091 13.0909 2.9091H2.90911ZM0.727295 3.63637C0.727295 2.43138 1.70413 1.45455 2.90911 1.45455H13.0909C14.2959 1.45455 15.2727 2.43138 15.2727 3.63637V13.8182C15.2727 15.0232 14.2959 16 13.0909 16H2.90911C1.70413 16 0.727295 15.0232 0.727295 13.8182V3.63637Z" fill="#172A3A"/>
<path fill-rule="evenodd" clip-rule="evenodd" d="M10.9091 -3.8147e-05C11.3108 -3.8147e-05 11.6364 0.325573 11.6364 0.727234V3.63632C11.6364 4.03799 11.3108 4.3636 10.9091 4.3636C10.5074 4.3636 10.1818 4.03799 10.1818 3.63632V0.727234C10.1818 0.325573 10.5074 -3.8147e-05 10.9091 -3.8147e-05Z" fill="#172A3A"/>
<path fill-rule="evenodd" clip-rule="evenodd" d="M5.09092 -3.8147e-05C5.49258 -3.8147e-05 5.81819 0.325573 5.81819 0.727234V3.63632C5.81819 4.03799 5.49258 4.3636 5.09092 4.3636C4.68926 4.3636 4.36365 4.03799 4.36365 3.63632V0.727234C4.36365 0.325573 4.68926 -3.8147e-05 5.09092 -3.8147e-05Z" fill="#172A3A"/>
<path fill-rule="evenodd" clip-rule="evenodd" d="M0.727295 6.54546C0.727295 6.14379 1.05291 5.81818 1.45457 5.81818H14.5455C14.9471 5.81818 15.2727 6.14379 15.2727 6.54546C15.2727 6.94712 14.9471 7.27273 14.5455 7.27273H1.45457C1.05291 7.27273 0.727295 6.94712 0.727295 6.54546Z" fill="#172A3A"/>
</g>
<defs>
<clipPath id="clip0">
<rect width="16" height="16" fill="white"/>
</clipPath>
</defs>
</svg>
