<svg width="16" height="16" viewBox="0 0 16 16" fill="none" xmlns="http://www.w3.org/2000/svg">
<path fill-rule="evenodd" clip-rule="evenodd" d="M0 0.800005C0 0.358174 0.358174 0 0.800005 0H6.40004C6.84187 0 7.20004 0.358174 7.20004 0.800005V6.40004C7.20004 6.84187 6.84187 7.20004 6.40004 7.20004H0.800005C0.358174 7.20004 0 6.84187 0 6.40004V0.800005ZM1.60001 1.60001V5.60003H5.60003V1.60001H1.60001Z" fill="#172A3A"/>
<path fill-rule="evenodd" clip-rule="evenodd" d="M8.79999 0.800005C8.79999 0.358174 9.15816 0 9.59999 0H15.2C15.6419 0 16 0.358174 16 0.800005V6.40004C16 6.84187 15.6419 7.20004 15.2 7.20004H9.59999C9.15816 7.20004 8.79999 6.84187 8.79999 6.40004V0.800005ZM10.4 1.60001V5.60003H14.4V1.60001H10.4Z" fill="#172A3A"/>
<path fill-rule="evenodd" clip-rule="evenodd" d="M8.79999 9.59996C8.79999 9.15813 9.15816 8.79996 9.59999 8.79996H15.2C15.6419 8.79996 16 9.15813 16 9.59996V15.2C16 15.6418 15.6419 16 15.2 16H9.59999C9.15816 16 8.79999 15.6418 8.79999 15.2V9.59996ZM10.4 10.4V14.4H14.4V10.4H10.4Z" fill="#172A3A"/>
<path fill-rule="evenodd" clip-rule="evenodd" d="M-6.10352e-05 9.59996C-6.10352e-05 9.15813 0.358113 8.79996 0.799944 8.79996H6.39998C6.84181 8.79996 7.19998 9.15813 7.19998 9.59996V15.2C7.19998 15.6418 6.84181 16 6.39998 16H0.799944C0.358113 16 -6.10352e-05 15.6418 -6.10352e-05 15.2V9.59996ZM1.59995 10.4V14.4H5.59997V10.4H1.59995Z" fill="#172A3A"/>
</svg>
