<svg width="16" height="16" viewBox="0 0 16 16" fill="none" xmlns="http://www.w3.org/2000/svg">
<g clip-path="url(#clip0)">
<path fill-rule="evenodd" clip-rule="evenodd" d="M5.75752 1.0402C5.91817 1.40833 5.74997 1.837 5.38183 1.99765C4.4019 2.42527 3.54164 3.08644 2.87626 3.92334C2.21089 4.76024 1.76065 5.74739 1.56492 6.79849C1.36919 7.84959 1.43392 8.93264 1.75345 9.95295C2.07299 10.9733 2.6376 11.8998 3.39792 12.6514C4.15824 13.4031 5.09113 13.9571 6.11502 14.265C7.13891 14.5729 8.22262 14.6252 9.27142 14.4175C10.3202 14.2098 11.3022 13.7483 12.1314 13.0734C12.9607 12.3985 13.612 11.5307 14.0284 10.546C14.1848 10.1761 14.6115 10.003 14.9815 10.1594C15.3514 10.3158 15.5245 10.7426 15.3681 11.1125C14.8591 12.3161 14.0631 13.3767 13.0496 14.2015C12.036 15.0264 10.8359 15.5904 9.55402 15.8443C8.27215 16.0982 6.94761 16.0342 5.69619 15.6579C4.44477 15.2817 3.30457 14.6045 2.37529 13.6858C1.44601 12.7671 0.755929 11.6347 0.365386 10.3877C-0.0251568 9.14062 -0.104272 7.81689 0.134956 6.53221C0.374185 5.24753 0.924474 4.04101 1.73771 3.01813C2.55095 1.99525 3.60238 1.18716 4.80007 0.66451C5.16821 0.503862 5.59687 0.672063 5.75752 1.0402Z" fill="#172A3A"/>
<path fill-rule="evenodd" clip-rule="evenodd" d="M7.48578 0.21312C7.62217 0.0767298 7.80715 0.000106812 8.00004 0.000106812C9.05061 0.000106812 10.0909 0.207033 11.0615 0.60907C12.0321 1.01111 12.914 1.60038 13.6569 2.34325C14.3998 3.08612 14.989 3.96803 15.3911 4.93863C15.7931 5.90924 16 6.94952 16 8.0001C16 8.40176 15.6744 8.72737 15.2728 8.72737H8.00004C7.59838 8.72737 7.27277 8.40176 7.27277 8.0001V0.727379C7.27277 0.534494 7.34939 0.34951 7.48578 0.21312ZM8.72731 1.49518V7.27282H14.505C14.4368 6.66294 14.283 6.06446 14.0472 5.49526C13.7183 4.70113 13.2362 3.97957 12.6284 3.37177C12.0206 2.76397 11.299 2.28183 10.5049 1.95289C9.93568 1.71712 9.33719 1.56337 8.72731 1.49518Z" fill="#172A3A"/>
</g>
<defs>
<clipPath id="clip0">
<rect width="16" height="16" fill="white"/>
</clipPath>
</defs>
</svg>
