<svg width="16" height="16" viewBox="0 0 16 16" fill="none" xmlns="http://www.w3.org/2000/svg">
<path fill-rule="evenodd" clip-rule="evenodd" d="M8.40001 1.6C7.4834 1.6 6.56598 1.81144 5.71778 2.23554C4.73355 2.72766 3.95969 3.42657 3.31296 4.4326C2.68157 5.41476 2.40002 6.46258 2.40002 7.59999C2.40002 8.5166 2.61146 9.43402 3.03556 10.2822C3.13045 10.472 3.14606 10.6917 3.07896 10.893L2.06493 13.9351L5.10703 12.921C5.30832 12.8539 5.52801 12.8696 5.71778 12.9644C6.56598 13.3885 7.4834 13.6 8.40001 13.6C9.51989 13.6 10.6561 13.2476 11.5807 12.6787C12.4924 12.1176 13.2704 11.2703 13.7645 10.2822C14.1886 9.43402 14.4 8.5166 14.4 7.59999V7.21965C14.3251 5.74535 13.6906 4.35222 12.6542 3.38484C12.6407 3.3723 12.6277 3.35929 12.6152 3.34585C11.6478 2.30937 10.2547 1.67489 8.78036 1.6H8.40001ZM5.00224 0.804457C6.07404 0.268557 7.23662 0 8.40001 0H8.80001C8.8127 0 8.82539 0.000301933 8.83806 0.000905513C10.7077 0.0899341 12.4985 0.887 13.766 2.23402C15.113 3.50155 15.9101 5.29235 15.9991 7.16194C15.9997 7.17461 16 7.1873 16 7.19999V7.59999C16 8.76338 15.7314 9.92596 15.1955 10.9978C14.5696 12.2497 13.5876 13.3223 12.4193 14.0413C11.2639 14.7523 9.84013 15.2 8.40001 15.2C7.34663 15.2 6.29392 14.9798 5.30865 14.5404L1.053 15.9589C0.765535 16.0547 0.448602 15.9799 0.234336 15.7657C0.0200704 15.5514 -0.0547474 15.2345 0.0410751 14.947L1.45963 10.6913C1.02019 9.70608 0.800021 8.65337 0.800021 7.59999C0.800021 6.1774 1.15846 4.82523 1.96708 3.56739C2.76034 2.33342 3.74649 1.43234 5.00224 0.804457Z" fill="#09BC8A"/>
</svg>
