<svg width="16" height="14" viewBox="0 0 16 14" fill="none" xmlns="http://www.w3.org/2000/svg">
<path fill-rule="evenodd" clip-rule="evenodd" d="M5.81818 0C6.13122 0 6.40914 0.192801 6.50813 0.478641L10.1818 11.0864L11.6737 6.77864C11.7727 6.4928 12.0506 6.3 12.3636 6.3H15.2727C15.6744 6.3 16 6.6134 16 7C16 7.3866 15.6744 7.7 15.2727 7.7H12.8878L10.8718 13.5214C10.7728 13.8072 10.4949 14 10.1818 14C9.86878 14 9.59086 13.8072 9.49187 13.5214L5.81818 2.91359L4.32632 7.22136C4.22732 7.5072 3.9494 7.7 3.63636 7.7H0.727273C0.325611 7.7 0 7.3866 0 7C0 6.6134 0.325611 6.3 0.727273 6.3H3.11217L5.12823 0.478641C5.22722 0.192801 5.50514 0 5.81818 0Z" fill="#09BC8A"/>
</svg>
