<svg width="16" height="16" viewBox="0 0 16 16" fill="none" xmlns="http://www.w3.org/2000/svg">
<path fill-rule="evenodd" clip-rule="evenodd" d="M15.7861 1.64246C16.0713 1.9276 16.0713 2.38991 15.7861 2.67506L8.48454 9.97664C8.1994 10.2618 7.73709 10.2618 7.45194 9.97664L5.26147 7.78617C4.97632 7.50102 4.97632 7.03871 5.26147 6.75357C5.54661 6.46842 6.00892 6.46842 6.29407 6.75357L7.96824 8.42774L14.7535 1.64246C15.0387 1.35731 15.501 1.35731 15.7861 1.64246Z" fill="#09BC8A"/>
<path fill-rule="evenodd" clip-rule="evenodd" d="M2.85716 2.1588C2.66351 2.1588 2.47779 2.23573 2.34086 2.37266C2.20393 2.50959 2.127 2.69531 2.127 2.88896V13.1112C2.127 13.3048 2.20393 13.4906 2.34086 13.6275C2.47779 13.7644 2.66351 13.8413 2.85716 13.8413H13.0794C13.273 13.8413 13.4588 13.7644 13.5957 13.6275C13.7326 13.4906 13.8095 13.3048 13.8095 13.1112V8.00008C13.8095 7.59682 14.1365 7.26992 14.5397 7.26992C14.943 7.26992 15.2699 7.59682 15.2699 8.00008V13.1112C15.2699 13.6921 15.0391 14.2493 14.6283 14.6601C14.2175 15.0709 13.6603 15.3017 13.0794 15.3017H2.85716C2.27621 15.3017 1.71906 15.0709 1.30826 14.6601C0.897469 14.2493 0.666687 13.6921 0.666687 13.1112V2.88896C0.666687 2.30801 0.897469 1.75086 1.30826 1.34006C1.71906 0.929268 2.27621 0.698486 2.85716 0.698486H10.8889C11.2922 0.698486 11.6191 1.02539 11.6191 1.42865C11.6191 1.8319 11.2922 2.1588 10.8889 2.1588H2.85716Z" fill="#09BC8A"/>
</svg>
